<svg width="200" height="81" viewBox="0 0 200 81" fill="none" xmlns="http://www.w3.org/2000/svg">
<path d="M144.582 0.146611V22.5541C144.582 26.3554 144.715 30.6234 140.714 33.0242C138.046 34.5581 133.645 34.4247 131.578 33.1576C127.243 30.7568 127.643 27.0889 127.643 22.4207V8.41604V0.0799217L117.506 0.0799217V9.68312V15.0849V20.3534C114.639 16.6855 111.171 15.9519 106.369 15.9519H99.7003C97.7663 15.9519 95.0321 16.0853 93.765 14.1513C93.1648 13.0176 93.1648 11.4837 93.765 10.35C94.8987 8.21597 97.7663 8.54941 100.567 8.54941H107.903H112.638V0.146611H99.3669C95.5656 0.146611 88.0964 -0.320212 84.6953 5.68179C82.4279 9.54975 82.4946 16.1519 84.6953 20.0199C87.6963 25.4217 92.0978 26.3554 96.8327 26.3554H103.635C105.569 26.3554 108.303 26.0886 109.57 28.156C110.237 29.3564 110.237 30.8902 109.57 32.0239C108.236 34.4247 103.968 34.158 102.101 34.158H87.763L87.2962 33.0242L75.2255 0.146611H61.0207L45.4155 42.5608H56.2858L62.4212 26.422L62.688 25.8218L72.6246 34.8915H77.0928L80.2938 42.6274H105.369C110.371 42.6274 115.506 42.5608 118.507 37.2923C118.773 36.8255 119.04 36.292 119.24 35.7585C120.24 37.6925 121.774 39.4264 124.175 40.8268C129.11 43.7612 142.448 43.7612 147.45 40.8935C154.185 37.0923 154.719 30.8902 154.719 24.5548V8.21597L144.582 0.146611ZM62.688 25.7552L68.4899 9.74981L74.1584 25.7552C74.0918 25.7552 62.688 25.7552 62.688 25.7552Z" fill="white"/>
<path d="M4.80209 62.3007L6.20256 58.9662L7.60302 62.3007C7.53633 62.3007 4.80209 62.3007 4.80209 62.3007ZM3.60169 56.9656L0.000488281 65.9019H3.33493L4.00182 64.2347H8.3366L9.00349 65.9019H12.3379L8.67005 56.8989C8.73674 56.9656 3.60169 56.9656 3.60169 56.9656Z" fill="white"/>
<path d="M21.2743 56.9656V63.5678H26.4093V65.9686H17.7397V56.9656H21.2743Z" fill="white"/>
<path d="M36.2793 62.3007L37.6798 58.9662L39.0803 62.3007H36.2793ZM35.1456 56.9656L31.5444 65.9686H34.8789L35.5458 64.3013H39.8805L40.5474 65.9686H43.8819L40.214 56.9656H35.1456Z" fill="white"/>
<path d="M52.7516 60.2333V59.0329H55.8193C56.4862 59.0329 57.0864 59.0996 57.0864 59.6331C57.0864 60.1666 56.4862 60.2333 55.8193 60.2333H52.7516ZM59.5539 61.2336C60.0207 61.1003 60.6209 60.7001 60.821 60.5001C61.3545 59.9666 61.3545 59.0996 61.2211 58.5661C60.7543 57.1656 59.4872 56.9656 58.02 56.9656H49.1504V65.9686H58.4868C59.2871 65.9686 60.7543 65.8352 61.4878 64.6348C61.888 64.0346 61.888 63.2343 61.6879 62.7675C61.2211 61.6338 60.2208 61.4337 59.5539 61.2336ZM52.7516 63.7678V62.1673H55.9527C56.6196 62.1673 57.4865 62.1673 57.4865 62.9676C57.4865 63.7011 56.6196 63.7678 55.9527 63.7678H52.7516Z" fill="white"/>
<path d="M71.3575 62.3007L72.7579 58.9662L74.1584 62.3007H71.3575ZM70.2238 56.9656L66.6226 65.9686H69.957L70.6239 64.3013H74.9587L75.6256 65.9686H78.96L75.2921 56.9656H70.2238Z" fill="white"/>
<path d="M89.4305 56.9656L91.1644 61.7005L92.8983 56.9656H97.9666V65.9686H94.6322V59.9666L92.4315 65.9686H89.8973L87.6299 59.9666V65.9686H84.2954V56.9656H89.4305Z" fill="white"/>
<path d="M108.17 62.3007L109.57 58.9662L110.971 62.3007H108.17ZM106.969 56.9656L103.368 65.9686H106.703L107.369 64.3013H111.704L112.371 65.9686H115.706L112.038 56.9656H106.969Z" fill="white"/>
<path d="M137.846 59.4997C137.446 58.6995 136.512 58.4994 135.979 58.4994C135.379 58.4994 134.778 58.4994 134.512 58.9662C134.445 59.0996 134.445 59.2997 134.512 59.4997C134.645 59.8999 135.445 60.0332 135.845 60.0332L138.713 60.4334C139.647 60.5668 141.047 60.9002 141.514 62.0339C141.847 62.7008 141.714 63.6344 141.314 64.3013C140.247 65.9686 137.779 66.1019 136.579 66.1019H135.379C132.644 66.1019 130.977 65.3684 130.177 63.9679C130.044 63.7678 129.977 63.5678 129.91 63.1009H133.845C133.978 63.301 134.045 63.4344 134.245 63.5678C134.912 64.2346 136.112 64.2346 136.646 64.1013C136.912 64.0346 137.313 63.9679 137.513 63.5678C137.579 63.4344 137.579 63.2343 137.513 63.0342C137.246 62.5674 136.712 62.5007 135.912 62.434L133.911 62.234C132.978 62.1673 131.111 61.8338 130.51 60.5668C130.244 59.8999 130.31 58.7662 130.71 58.166C131.711 56.6988 134.045 56.6321 134.912 56.6321H136.046C139.18 56.6321 141.047 57.8325 141.581 59.4997H137.846Z" fill="white"/>
<path d="M156.653 59.5664H153.452V65.9686H149.851V59.5664H146.716V56.9656H156.653V59.5664Z" fill="white"/>
<path d="M164.389 62.3007L165.789 58.9662L167.189 62.3007H164.389ZM163.188 56.9656L159.587 65.9686H162.921L163.588 64.3013H167.923L168.59 65.9686H171.924L168.256 56.9656H163.188Z" fill="white"/>
<path d="M184.662 59.5664H181.461V65.9686H177.86V59.5664H174.726V56.9656H184.662V59.5664Z" fill="white"/>
<path d="M199.667 56.9656V59.0996H193.798V60.1666H199.134V62.3007H193.798V63.7011H200.001V65.9019H190.197V56.9656H199.667Z" fill="white"/>
<path d="M31.5444 71.7038V76.2387C31.5444 76.9722 31.4777 78.0393 32.2779 78.5061C32.7448 78.7062 33.9452 78.8395 34.4787 78.4394C35.2789 77.9726 35.2122 77.1056 35.2122 76.3054V71.7038H38.7468V76.9056C38.7468 80.1733 36.4793 80.9736 33.2783 80.9736C29.9438 80.9736 27.8765 80.24 27.8765 76.9056V71.7038H31.5444Z" fill="white"/>
<path d="M52.3509 76.4387V71.7038H55.6187V80.7068H51.6841L47.8161 75.6385V80.7068H44.5483V71.7038H48.7497L52.3509 76.4387Z" fill="white"/>
<path d="M61.3545 71.7038H64.9557V80.7068H61.3545V71.7038Z" fill="white"/>
<path d="M74.2254 80.7068L70.3574 71.7038H73.7586L76.226 77.4391L78.6935 71.7038H82.0947L78.2267 80.7068H74.2254Z" fill="white"/>
<path d="M96.8995 71.7038V73.8378H91.0309V74.9049H96.366V77.0389H91.0309V78.4394H97.233V80.6401H87.4297V71.6371H96.8995V71.7038Z" fill="white"/>
<path d="M106.569 75.5718V73.7712H108.837C109.504 73.7712 110.171 73.7045 110.437 74.238C110.571 74.5048 110.637 74.8382 110.371 75.1716C110.037 75.6385 109.37 75.5718 108.637 75.5718H106.569ZM111.104 71.7038H102.968V80.7068H106.569V77.4391H108.503L110.371 80.6401H114.305L111.971 77.1056C112.772 76.9056 113.572 76.4387 113.905 75.5051C114.172 74.8382 114.239 73.7712 113.705 72.9709C113.238 72.2373 112.438 71.7038 111.104 71.7038Z" fill="white"/>
<path d="M127.376 74.3047C126.976 73.5044 126.043 73.3043 125.509 73.3043C124.909 73.3043 124.309 73.3043 124.042 73.7712C123.975 73.9045 123.975 74.1046 124.042 74.3047C124.175 74.7048 124.976 74.8382 125.376 74.8382L128.243 75.2383C129.177 75.3717 130.577 75.7051 131.044 76.8389C131.378 77.5057 131.311 78.4394 130.844 79.1063C129.777 80.7735 127.31 80.9069 126.109 80.9069H124.909C122.175 80.9069 120.507 80.1733 119.707 78.7728C119.574 78.5728 119.507 78.3727 119.44 77.9059H123.375C123.508 78.1059 123.575 78.2393 123.775 78.3727C124.442 79.0396 125.642 79.0396 126.176 78.9062C126.443 78.8395 126.843 78.7728 127.043 78.3727C127.11 78.2393 127.11 78.0393 127.043 77.8392C126.776 77.3724 126.243 77.3057 125.442 77.239L123.442 77.0389C122.508 76.9722 120.641 76.6388 120.041 75.3717C119.774 74.7048 119.774 73.5711 120.241 72.9709C121.241 71.5037 123.575 71.4371 124.442 71.4371H125.576C128.71 71.4371 130.577 72.6375 131.111 74.3047H127.376Z" fill="white"/>
<path d="M136.779 71.7038H140.38V80.7068H136.779V71.7038Z" fill="white"/>
<path d="M155.786 74.3047H152.585V80.7068H148.984V74.3047H145.783V71.7038H155.719L155.786 74.3047Z" fill="white"/>
<path d="M163.989 71.7038L166.123 75.105L168.324 71.7038H172.058L167.857 78.2393V80.7068H164.256V78.2393L160.188 71.7705L163.989 71.7038Z" fill="white"/>
</svg>
