<svg width="200" height="61" viewBox="0 0 200 61" fill="none" xmlns="http://www.w3.org/2000/svg">
<path d="M19.0774 11.465C19.5418 11.0608 19.9099 10.5703 20.1998 9.99961C20.5769 9.23734 20.7695 8.36875 20.7695 7.4129C20.7695 5.44805 20.1466 3.93955 18.9199 2.91349C17.7184 1.91452 15.9471 1.405 13.6503 1.405H-0.00244141V24.6192H14.3513C16.7716 24.6192 18.7264 23.9702 20.1556 22.6984C21.6029 21.4096 22.3391 19.6464 22.3391 17.4628C22.3391 16.0948 22.0142 14.8581 21.3662 13.7969C20.8226 12.9033 20.0503 12.1139 19.0684 11.456L19.0774 11.465ZM16.2981 9.53523C15.7625 9.99159 14.9561 10.2283 13.895 10.2283H3.65447V4.8603H13.895C14.9912 4.8603 15.8067 5.08898 16.3242 5.53631C16.8327 5.97462 17.0694 6.6406 17.0694 7.57038C17.0694 8.43896 16.8147 9.07887 16.2891 9.53523H16.2981ZM18.5508 17.4277C18.5508 18.6123 18.2359 19.515 17.587 20.1819C16.938 20.8479 16.0614 21.1729 14.912 21.1729H3.6635V13.6836H14.912C16.0614 13.6836 16.938 14.0075 17.587 14.6836C18.2359 15.3586 18.5508 16.2613 18.5508 17.4277Z" fill="white"/>
<path d="M36.9206 13.9905H45.8552V10.5352H36.9206V4.86027H51.7036V1.414H33.2637V24.6282H52.6153V21.1729H36.9206V13.9905Z" fill="white"/>
<path d="M80.3309 21.1729H65.7494V1.414H62.0935V24.6282H80.3309V21.1729Z" fill="white"/>
<path d="M107.135 21.7777C109.398 19.4979 110.554 16.5682 110.554 13.0778C110.554 9.58737 109.406 6.65864 107.126 4.36982C104.855 2.081 101.953 0.922546 98.4982 0.922546C95.0439 0.922546 92.1763 2.081 89.9146 4.36079C87.6518 6.64058 86.5125 9.57032 86.5125 13.0778C86.5125 16.5862 87.6528 19.4979 89.9056 21.7777C92.1593 24.0585 95.0529 25.2159 98.4982 25.2159C101.944 25.2159 104.864 24.0585 107.135 21.7777ZM92.5886 19.2873C91.0369 17.6644 90.2476 15.5772 90.2476 13.0778C90.2476 10.5783 91.0369 8.48308 92.5886 6.86024C94.1412 5.23741 96.1311 4.41395 98.4982 4.41395C100.866 4.41395 102.874 5.22938 104.417 6.84319C105.968 8.46502 106.749 10.5613 106.749 13.0697C106.749 15.5772 105.96 17.6564 104.408 19.2782C102.856 20.892 100.866 21.7075 98.4982 21.7075C96.1311 21.7075 94.1412 20.892 92.5886 19.2782V19.2873Z" fill="white"/>
<path d="M129.608 24.6282L140.857 1.414H136.806L128.467 18.7346L120.13 1.414H116.131L127.319 24.6282H129.608Z" fill="white"/>
<path d="M168.336 21.1729H152.642V13.9905H161.576V10.5352H152.642V4.86027H167.425V1.414H148.985V24.6282H168.336V21.1729Z" fill="white"/>
<path d="M196.631 4.65064C194.404 2.50124 191.44 1.414 187.819 1.414H177.814V24.6282H187.819C191.51 24.6282 194.491 23.567 196.684 21.4708C198.884 19.3745 199.998 16.5511 199.998 13.0778C199.998 9.60541 198.866 6.79904 196.64 4.65064H196.631ZM196.236 13.0426C196.236 15.5341 195.482 17.542 194.001 18.9894C192.518 20.4447 190.432 21.1819 187.819 21.1819H181.462V4.8693H187.819C190.379 4.8693 192.448 5.62354 193.966 7.10596C195.473 8.58837 196.236 10.5873 196.236 13.0426Z" fill="white"/>
<path d="M26.5037 46.9677C26.9681 46.5645 27.3362 46.073 27.626 45.5033C28.0032 44.7401 28.1957 43.8715 28.1957 42.9156C28.1957 40.9518 27.5729 39.4433 26.3462 38.4172C25.1446 37.4173 23.3734 36.9087 21.0765 36.9087H7.42383V60.1229H21.7776C24.1978 60.1229 26.1526 59.474 27.5819 58.2022C29.0292 56.9123 29.7654 55.1501 29.7654 52.9666C29.7654 51.5985 29.4404 50.3618 28.7925 49.3007C28.2489 48.406 27.4766 47.6166 26.4946 46.9587L26.5037 46.9677ZM23.7244 45.038C23.1888 45.4943 22.3824 45.731 21.3212 45.731H11.0807V40.364H21.3212C22.4175 40.364 23.2329 40.5917 23.7505 41.039C24.259 41.4773 24.4957 42.1443 24.4957 43.0741C24.4957 43.9417 24.2409 44.5826 23.7154 45.038H23.7244ZM25.9771 52.9315C25.9771 54.115 25.6622 55.0187 25.0132 55.6847C24.3643 56.3517 23.4877 56.6756 22.3383 56.6756H11.0898V49.1863H22.3383C23.4877 49.1863 24.3643 49.5113 25.0132 50.1863C25.6622 50.8613 25.9771 51.765 25.9771 52.9315Z" fill="white"/>
<path d="M44.3468 49.4932H53.2814V46.0379H44.3468V40.364H59.1299V36.9167H40.6899V60.1309H60.0416V56.6756H44.3468V49.4932Z" fill="white"/>
<path d="M85.451 52.8613L71.6148 36.9167H69.5195V60.1309H73.1754V44.1784L87.0728 60.1309H89.134V36.9167H85.451V52.8613Z" fill="white"/>
<path d="M104.776 49.4932H113.71V46.0379H104.776V40.364H119.559V36.9167H101.12V60.1309H120.471V56.6756H104.776V49.4932Z" fill="white"/>
<path d="M129.949 60.1309H133.606V49.4932H142.54V46.0379H133.606V40.364H148.389V36.9167H129.949V60.1309Z" fill="white"/>
<path d="M160.4 36.7944H156.709V60.131H160.4V36.7944Z" fill="white"/>
<path d="M166.95 40.364H176.341V60.1309H180.015V40.364H189.414V36.9167H166.95V40.364Z" fill="white"/>
</svg>
