<svg width="200" height="85" viewBox="0 0 200 85" fill="none" xmlns="http://www.w3.org/2000/svg">
<mask id="mask0_11_310" style="mask-type:luminance" maskUnits="userSpaceOnUse" x="-1" y="0" width="201" height="85">
<path d="M199.998 0.35841H-0.00244141V84.6951H199.998V0.35841Z" fill="white"/>
</mask>
<g mask="url(#mask0_11_310)">
<path d="M136.505 49.8817C136.505 48.5524 137.579 47.4736 138.913 47.4736C140.248 47.4736 141.322 48.5524 141.322 49.8817C141.322 51.211 140.243 52.2898 138.913 52.2898C137.584 52.2898 136.505 51.211 136.505 49.8817ZM166.056 62.5976C169.129 62.5976 170.322 61.3935 170.322 60.1677C170.322 58.5823 168.42 57.8196 166.056 57.8414C163.637 57.8632 161.921 58.7567 161.921 60.1841C161.921 61.35 162.978 62.5976 166.056 62.5976ZM61.7628 54.9484C63.163 54.9484 64.2962 53.8152 64.2962 52.4151C64.2962 51.0149 63.163 49.8817 61.7628 49.8817C60.3626 49.8817 59.2294 51.0149 59.2294 52.4151C59.2294 53.8152 60.3626 54.9484 61.7628 54.9484ZM153.253 74.2456H153.133C150.627 74.2838 148.17 73.0743 146.366 70.8515C143.828 72.4532 141.376 73.2323 139.616 72.9599C135.808 72.3824 134.664 69.3805 134.337 67.4137C132.152 69.9907 129.248 71.2219 126.454 71.478C127.451 73.423 127.957 75.7548 127.957 77.9122C127.957 81.2628 126.007 84.6951 122.482 84.6951C117.557 84.6951 114.599 77.776 114.217 71.0421C113.373 71.3581 111.983 71.5978 111.335 70.2522C110.556 68.6341 112.49 67.1413 114.125 66.2151C114.413 52.7855 120.292 43.2895 126.65 43.2895C128.785 43.2895 131.362 44.5861 131.362 48.4924C131.362 52.3987 128.938 57.8196 125.026 62.4941C124.498 63.126 123.256 64.3682 121.877 65.6431C127.434 69.5712 130.807 65.338 132.19 62.7392C132.523 62.0419 132.801 61.3554 133.013 60.7507C133.803 58.5061 133.574 59.0345 134.321 56.8117C135.378 53.6463 137.094 53.7771 137.873 53.9078C140.64 54.3709 138.984 57.4328 138.309 60.1241L138.276 60.1895C137.23 64.7823 137.715 68.4271 140.586 68.9882C141.501 69.1244 143.081 68.5905 144.699 67.4409C140.918 57.6507 146.693 46.0571 152.681 44.9457C154.675 44.5752 157.295 45.2998 157.955 48.8302C158.646 52.5295 157.263 57.6888 154.397 62.603C153.749 63.7144 151.885 66.226 149.673 68.1274C149.69 68.1492 149.701 68.1655 149.695 68.171C151.373 70.3666 153.493 70.3121 153.493 70.3121C156.631 70.2903 157.579 67.8877 157.965 66.8961C158.412 65.752 159.322 65.3761 160.286 65.6867C161.332 66.019 161.409 67.0977 161.207 67.8713C160.798 69.4785 158.679 74.1258 153.275 74.2511M118.505 63.5728C123.572 58.8166 127.516 52.0391 127.489 48.4107C127.489 47.7134 127.325 47.0977 126.628 47.0977C125.043 47.0977 119.878 52.0991 118.505 63.5728ZM122.417 71.0966C120.662 70.5682 119.202 69.6202 118.347 68.6123C118.281 68.6559 118.222 68.7049 118.162 68.743C118.151 68.8248 118.134 68.901 118.113 68.9773C118.069 75.1446 120.292 80.8433 122.76 80.5763C125.359 80.1459 124.133 74.8558 122.417 71.0966ZM148.115 64.7005C152.572 59.7918 154.849 52.4369 154.326 49.4186C154.206 48.7866 153.956 48.3017 153.302 48.378C151.215 48.6286 146.366 57.5254 148.115 64.7005ZM37.9273 21.399C40.2046 24.4663 46.7424 23.4747 51.7274 19.77C56.7124 16.0653 57.9437 11.2819 55.6664 8.22003C53.3891 5.15819 48.4585 4.96751 43.4735 8.67222C38.4885 12.3715 35.65 18.3372 37.9273 21.4044M195.47 76.9479C192.109 76.7736 188.627 74.311 185.527 70.8133C180.052 72.0555 174.441 72.3061 170.529 72.2789C167.282 75.6077 164.176 78.3807 161.964 79.9552C161.964 79.9552 158.968 82.2053 157.519 80.293C156.669 79.0073 157.099 77.6235 159.436 76.1525C160.897 75.2317 162.722 73.7444 164.705 71.9138C161.354 71.004 162.182 67.5336 165.451 67.9313C165.685 67.9585 166.775 68.1111 168.442 68.2364C171.689 64.8585 174.991 60.9849 177.53 57.4273C176.326 54.3056 175.628 51.3472 175.628 49.0209C175.628 45.97 177.377 42.5213 180.929 42.5213C184.481 42.5213 186.127 45.3816 186.127 48.3344C186.127 50.846 184.59 54.2456 182.248 57.9122C183.588 60.767 185.331 63.7417 187.287 66.2805C189.39 65.594 191.466 64.6951 193.422 63.5347C196.053 61.9656 198.314 64.9893 195.552 66.9234C193.89 67.964 192.054 68.8084 190.126 69.4894C192.152 71.4399 194.283 72.7528 196.342 72.9272C199.856 73.2268 199.998 77.3129 195.47 76.9479ZM180.341 53.0634C181.365 51.2274 182.003 49.6256 182.095 48.4379C182.188 47.7297 182.057 46.5148 181.006 46.5148C179.175 46.5148 179.175 49.3042 180.341 53.0634ZM182.874 67.43C181.632 65.6649 180.499 63.7635 179.513 61.8457C177.867 64.0468 176.037 66.2587 174.163 68.3671C176.783 68.3017 179.785 68.0511 182.874 67.43ZM111.809 60.1623C111.809 58.5714 109.897 57.8032 107.527 57.825C105.097 57.8468 103.375 58.7512 103.375 60.1786C103.375 61.35 104.438 62.603 107.521 62.603C110.605 62.603 111.809 61.399 111.809 60.1568M31.6348 31.952C31.6457 31.3636 31.6075 30.0342 30.1311 30.0342C28.2896 30.0942 26.3065 33.3467 27.0965 35.1391C28.5511 37.4764 31.5857 34.4363 31.6402 31.952M105.299 69.8109C105.299 71.4725 102.831 76.9261 97.121 76.9261C91.4114 76.9261 88.8617 71.0639 88.8617 71.0639C88.2951 77.0024 86.9712 78.2064 85.157 78.0103C84.0564 77.8904 83.5334 77.1059 83.5334 75.989C83.5334 75.575 83.8821 73.0579 84.1709 71.1838C81.6811 73.5646 78.3632 75.3407 74.4623 75.1609C72.5337 75.0737 69.9622 74.1149 68.2079 71.9302C66.9222 73.679 64.8737 75.259 62.7108 75.259C60.8639 75.259 58.5539 74.044 57.1918 70.6553L57.1374 70.6935C55.5683 74.0059 52.8878 76.2233 49.7988 76.2233C48.4912 76.2233 45.6473 75.3026 45.5166 71.8376C45.3313 67.0051 46.8295 65.2998 44.9445 64.9021C43.577 64.6624 40.2101 65.6376 39.856 72.3715C39.8342 73.1451 39.8287 73.9405 39.8505 74.7578C39.8887 76.1688 39.4583 77.3511 37.8293 77.4001C36.1186 77.4546 35.5629 76.1143 35.5138 74.5671C35.5138 73.9351 35.5084 73.0961 35.5138 72.159C30.0494 76.3649 23.8058 78.7076 17.8402 78.3263C5.34766 77.4437 -0.00238243 65.8664 0.428018 54.8013C1.15262 36.305 15.3449 18.6423 28.8508 20.086C35.7971 20.8269 39.4691 26.2587 39.0006 34.6651C38.276 47.648 29.6244 60.0097 20.7549 59.5085C17.7584 59.3396 12.7026 56.9533 13.2311 49.3096C13.6615 43.0498 17.2136 38.6477 18.9897 38.0811C20.0249 37.7488 21.4414 38.3535 21.327 39.7319C21.1308 42.0691 18.1888 43.6545 17.704 49.435C17.4806 52.0991 18.4013 55.1173 21.3596 55.2808C27.7557 55.6403 33.8195 43.4148 34.288 35.0356C34.6912 27.7951 32.0761 24.4608 28.2842 24.0904C17.4697 23.028 6.12129 40.3203 5.30407 54.6488C4.72113 64.8585 9.21581 73.3794 17.9382 74.0822C24.1 74.578 30.5669 71.5652 35.8734 66.5692C36.9903 51.5107 40.0739 45.0601 45.9578 44.9457C48.1589 44.9021 51.0682 46.0462 51.2425 49.9634C51.3297 53.5319 49.8859 57.0242 47.0257 61.1102C49.6081 60.6199 50.3872 62.4014 50.4089 63.3712C50.4089 66.8253 48.2134 71.8594 50.8067 71.8376C51.5422 71.8376 52.3267 71.3254 53.0513 70.5409C53.8794 69.4513 54.5059 67.8605 54.9963 66.4603C55.7862 64.2211 56.6906 61.1647 57.388 58.9256C58.1562 56.463 59.6162 56.2342 60.5315 56.4031C61.7029 56.6156 62.6835 57.1168 61.8554 59.5902C61.4523 60.7888 60.4988 62.7828 60.3191 65.7738C60.1502 68.6831 61.5013 70.9604 63.1085 70.9604C64.5849 70.9604 66.0723 69.2552 66.3719 67.5935C66.2902 67.0487 66.2466 66.4712 66.2466 65.861C66.2466 58.5006 71.2588 53.0198 75.4539 53.2214C79.4419 53.4066 81.0654 56.305 81.0654 58.7948C81.0001 61.9819 79.1695 65.4197 76.6906 64.6079C74.604 63.8397 75.4539 61.9819 76.2602 60.6526C77.2572 59.04 76.6797 57.9122 75.552 57.7706C73.9557 57.5635 70.9429 60.9305 70.9429 65.4687C70.9429 69.7019 73.498 70.5409 75.1325 70.6281C78.9679 70.8406 84.8628 68.0566 85.9306 60.0533C86.5135 55.6948 86.6062 54.676 87.249 47.8223C87.4397 45.7738 88.8453 45.4251 89.3302 45.4034C89.984 45.3707 91.6675 45.5886 91.5476 47.855C91.3678 51.3472 90.9973 53.9133 90.5942 55.9128C91.771 54.7033 93.7541 53.6082 95.5465 53.6082C99.698 53.6082 100.815 57.0024 100.94 59.1217C101 66.5093 93.1548 69.9362 93.1548 69.9362C93.1548 69.9362 94.4242 73.2105 97.1973 73.0634C101.262 72.8509 101.708 68.4652 103.74 68.2909C105.119 68.171 105.299 69.3369 105.299 69.8218M47.3144 50.3775C47.2926 49.7183 46.9657 48.901 46.1703 48.743C43.7187 48.3344 41.8391 51.5706 40.5642 61.2192C40.477 61.8948 40.3899 62.603 40.3082 63.3385C41.8936 61.5352 43.1848 59.9062 44.209 58.4352C46.5571 55.0574 47.4942 52.475 47.3144 50.3775ZM96.7015 60.0424C96.7778 59.1871 96.3964 57.6561 94.7729 57.6561C92.9805 57.7379 90.7086 59.2906 90.0221 66.6019C91.3079 66.4548 96.3855 63.5782 96.7015 60.0424ZM10.0276 19.9552C12.1197 21.7368 15.0235 22.3197 16.173 20.9686C17.328 19.612 16.2984 16.8335 14.2117 15.052C12.1251 13.2704 9.88593 13.2595 8.73093 14.6161C7.57593 15.9672 7.93551 18.1683 10.0276 19.9552ZM30.4253 17.4328C33.4109 18.0811 36.8105 14.1258 37.8456 9.35868C38.8808 4.59159 37.0938 1.1157 34.1137 0.467372C33.7868 0.391099 33.4653 0.35841 33.1384 0.35841H33.1276C30.4798 0.374754 27.9573 2.76102 27.0311 7.0051C25.996 11.7722 27.4397 16.779 30.4253 17.4273M39.6544 41.606C45.8489 37.3238 48.878 38.5006 48.878 36.9207C48.878 35.1827 44.1 31.8866 40.7277 31.5815C40.7658 32.5186 40.7604 33.4829 40.7059 34.4908C40.5751 36.8662 40.2155 39.2579 39.6544 41.606ZM22.8797 17.776C25.1243 16.7463 25.3967 12.5186 23.7459 8.91739C22.0951 5.31619 19.2458 3.91602 17.0012 4.94572C14.7565 5.97541 13.9611 9.04269 15.6119 12.6493C17.2627 16.256 20.635 18.8111 22.8797 17.7815" fill="white"/>
</g>
</svg>
