<svg width="200" height="51" viewBox="0 0 200 51" fill="none" xmlns="http://www.w3.org/2000/svg">
<path d="M164.133 50.7227C152.476 50.7227 140.822 50.7227 129.164 50.7227C129.024 50.7227 128.884 50.7122 128.744 50.7227C128.372 50.7577 128.253 50.5861 128.264 50.2287C128.281 49.4999 128.267 48.7746 128.267 48.0457C128.267 32.4395 128.267 16.8333 128.267 1.22358C128.267 1.08342 128.278 0.943267 128.267 0.803112C128.239 0.466741 128.369 0.298555 128.723 0.33009C128.849 0.340601 128.975 0.33009 129.101 0.33009C152.455 0.33009 175.808 0.33009 199.165 0.33009C200.09 0.33009 199.995 0.288043 199.995 1.17803C199.995 17.4009 199.995 33.6238 199.995 49.8467C199.995 50.7963 200.086 50.7157 199.101 50.7157C187.444 50.7157 175.79 50.7157 164.133 50.7157V50.7227ZM164.059 46.0275C174.2 46.0275 184.343 46.0275 194.483 46.0275C194.638 46.0275 194.792 46.0205 194.946 46.0275C195.254 46.045 195.38 45.8979 195.363 45.6C195.356 45.4739 195.363 45.3478 195.363 45.2216C195.363 32.0646 195.363 18.9111 195.363 5.75408C195.363 5.2285 195.094 4.96571 194.557 4.96571C174.273 4.96571 153.989 4.96571 133.705 4.96571C133.579 4.96571 133.453 4.97622 133.327 4.96571C132.991 4.93767 132.871 5.09885 132.896 5.4177C132.906 5.55786 132.896 5.69801 132.896 5.83817C132.896 18.9672 132.896 32.0926 132.896 45.2216C132.896 45.7612 133.169 46.031 133.716 46.031C143.828 46.031 153.944 46.031 164.056 46.031L164.059 46.0275Z" fill="white"/>
<path d="M48.165 26.087C48.165 21.2727 48.165 16.4584 48.165 11.6441C48.165 11.2143 48.3834 10.9994 48.8203 10.9994C51.0627 10.9994 53.3017 10.9994 55.5442 10.9994C56.4447 10.9994 57.3347 11.1045 58.2036 11.3427C60.2113 11.8964 61.5673 13.1542 62.0193 15.19C62.594 17.7548 62.5659 20.3582 62.0439 22.9335C61.7565 24.3491 60.9542 25.4633 59.6963 26.2237C59.5841 26.2902 59.2443 26.3638 59.6157 26.56C61.3921 27.4921 62.0719 29.1073 62.2821 30.9644C62.5239 33.1228 62.3452 35.2987 62.3872 37.4676C62.4083 38.6028 62.4293 39.7346 62.8042 40.8243C62.8778 41.0415 62.8147 41.1501 62.587 41.1501C61.1574 41.1501 59.7278 41.1501 58.3017 41.1501C58.0705 41.1501 57.9934 40.996 57.9373 40.8103C57.7656 40.2742 57.7026 39.7206 57.6675 39.1599C57.5274 37.0471 57.629 34.9343 57.5974 32.825C57.5904 32.3344 57.5975 31.8474 57.5169 31.3603C57.2541 29.7556 56.4552 29.0092 54.8189 28.9076C54.3318 28.8761 53.8378 28.9076 53.3473 28.8971C53.0494 28.8901 52.9583 29.0373 52.9618 29.3106C52.9723 29.7451 52.9618 30.1795 52.9618 30.6105C52.9618 33.9287 52.9618 37.2433 52.9618 40.5615C52.9618 41.1431 52.9513 41.1501 52.3767 41.1536C51.1994 41.1536 50.0221 41.1536 48.8448 41.1536C48.3916 41.1536 48.165 40.9329 48.165 40.4914C48.165 35.6911 48.165 30.8908 48.165 26.0905V26.087ZM52.9583 19.9202C52.9583 21.2762 52.9583 22.6357 52.9583 23.9917C52.9583 24.0057 52.9583 24.0197 52.9583 24.0337C52.9198 24.3911 53.0634 24.5453 53.4349 24.5278C53.9254 24.5068 54.4159 24.5278 54.9065 24.5208C56.4692 24.5068 57.2891 23.799 57.4993 22.2433C57.678 20.9083 57.5519 19.5593 57.5729 18.2208C57.5799 17.7338 57.4958 17.2468 57.3417 16.7772C57.0929 16.0169 56.5953 15.5439 55.7895 15.4212C55.0221 15.3056 54.2513 15.4072 53.4839 15.3617C53.0775 15.3372 52.9478 15.4913 52.9548 15.8943C52.9723 17.2362 52.9618 18.5817 52.9618 19.9237L52.9583 19.9202Z" fill="white"/>
<path d="M43.5715 41.1501C42.9128 41.1501 42.254 41.1431 41.5953 41.1536C41.2835 41.1606 41.1468 41.031 41.1048 40.7227C40.8875 39.1985 40.6458 37.6813 40.432 36.1571C40.383 35.8102 40.2323 35.6841 39.8854 35.6876C38.2736 35.7016 36.6654 35.6981 35.0536 35.6876C34.7277 35.6876 34.5806 35.7927 34.5315 36.1291C34.3283 37.5832 34.1005 39.0338 33.8798 40.4844C33.8121 40.9259 33.5493 41.1466 33.0914 41.1466C32.0543 41.1466 31.0171 41.1466 29.9835 41.1466C29.4159 41.1466 29.3808 41.0976 29.4684 40.5405C30.2042 35.9714 30.9401 31.3989 31.6724 26.8298C32.4888 21.7212 33.3087 16.609 34.1111 11.4969C34.1706 11.108 34.3283 10.9818 34.7102 10.9853C36.7004 10.9994 38.6871 10.9994 40.6773 10.9853C41.0697 10.9853 41.2169 11.129 41.2765 11.5004C42.254 17.6602 43.2386 23.82 44.2267 29.9798C44.7943 33.5292 45.362 37.0786 45.9296 40.6281C46.0067 41.1186 45.9857 41.1431 45.4636 41.1466C44.8329 41.1466 44.2022 41.1466 43.5715 41.1466V41.1501ZM37.4923 16.8193C37.4678 16.8158 37.4432 16.8088 37.4222 16.8053C37.2365 18.0632 37.0508 19.3175 36.8651 20.5754C36.343 24.0863 35.8209 27.5972 35.2848 31.1045C35.2288 31.476 35.3304 31.5741 35.6843 31.5706C36.8581 31.5565 38.0354 31.5565 39.2092 31.5706C39.5841 31.5741 39.6892 31.4654 39.6296 31.0765C39.1496 27.9546 38.6941 24.8291 38.2281 21.7072C37.9863 20.0779 37.7341 18.4486 37.4888 16.8193H37.4923Z" fill="white"/>
<path d="M107.006 19.2334C106.389 19.2334 105.772 19.2264 105.156 19.2334C104.851 19.2405 104.728 19.1178 104.732 18.8095C104.735 18.1963 104.746 17.5831 104.658 16.9664C104.416 15.2566 102.521 14.3946 101.067 15.3442C100.464 15.7366 100.24 16.3463 100.128 17.012C99.8543 18.6658 100.313 20.1409 101.256 21.4899C102.065 22.6462 103.13 23.5572 104.15 24.5138C105.807 26.066 107.524 27.5797 108.435 29.7275C109.606 32.4956 109.672 35.2987 108.46 38.0807C107.829 39.5278 106.711 40.5054 105.222 41.0135C103.194 41.7037 101.144 41.7037 99.1255 40.9749C97.2965 40.3162 96.1788 38.9532 95.5831 37.1382C95.0715 35.579 95.1346 33.9637 95.1521 32.3554C95.1521 32.1067 95.2923 32.005 95.5236 32.005C96.7849 32.005 98.0428 32.005 99.3042 32.005C99.5986 32.005 99.6896 32.1662 99.6896 32.4325C99.6861 33.0772 99.6826 33.7184 99.6896 34.3631C99.6931 34.6294 99.7037 34.8957 99.7527 35.155C100.016 36.5741 101.014 37.2819 102.454 37.0892C103.709 36.921 104.385 36.1221 104.49 34.8151C104.662 32.7128 103.796 31.038 102.419 29.5558C101.189 28.2314 99.7527 27.1207 98.5088 25.8102C97.3421 24.5804 96.3435 23.2349 95.8074 21.6091C95.026 19.244 95.019 16.8648 95.888 14.5313C96.6133 12.5831 98.0428 11.3743 100.079 10.8977C101.753 10.5053 103.418 10.5333 105.051 11.0694C107.097 11.7422 108.306 13.2103 108.884 15.2425C109.22 16.4269 109.294 17.6357 109.276 18.8585C109.273 19.1283 109.15 19.2334 108.891 19.2299C108.26 19.2229 107.629 19.2299 106.999 19.2299L107.006 19.2334Z" fill="white"/>
<path d="M113.512 32.0015C113.667 32.0015 113.821 31.991 113.975 32.0015C114.539 32.0471 115.254 31.7528 115.636 32.1382C115.997 32.5026 115.734 33.2069 115.755 33.7605C115.772 34.195 115.779 34.6259 115.835 35.0569C116.011 36.3814 116.852 37.1137 118.208 37.1067C119.543 37.0997 120.362 36.3709 120.548 35.0674C120.846 32.9861 120.068 31.2938 118.719 29.7871C117.402 28.312 115.842 27.0891 114.479 25.6595C112.798 23.8936 111.648 21.8649 111.421 19.4086C111.252 17.5796 111.375 15.7751 112.188 14.0723C112.938 12.499 114.154 11.4724 115.818 10.9959C117.5 10.5123 119.196 10.5088 120.878 10.9889C122.994 11.5915 124.301 13.0211 124.949 15.0919C125.334 16.3252 125.38 17.5936 125.348 18.8726C125.341 19.1143 125.243 19.2335 124.995 19.2335C123.733 19.2335 122.472 19.2335 121.214 19.2335C120.927 19.2335 120.874 19.0618 120.867 18.8235C120.853 18.3084 120.839 17.7899 120.79 17.2748C120.601 15.2531 119.255 14.6924 117.556 15.1795C116.487 15.4843 116.266 16.4514 116.182 17.422C116.028 19.1844 116.652 20.6876 117.756 22.026C118.695 23.1648 119.816 24.1178 120.895 25.1164C122.482 26.5776 123.961 28.1298 124.728 30.1936C125.723 32.8635 125.72 35.544 124.543 38.1578C123.936 39.5033 122.871 40.4319 121.494 40.9539C119.599 41.6722 117.65 41.7038 115.716 41.1431C113.137 40.3933 111.866 38.5012 111.403 35.9714C111.189 34.7941 111.214 33.6028 111.221 32.415C111.221 32.0997 111.382 32.0015 111.669 32.0051C112.286 32.0121 112.903 32.0051 113.519 32.0051L113.512 32.0015Z" fill="white"/>
<path d="M14.798 26.0485C14.798 21.2482 14.798 16.4479 14.798 11.6476C14.798 11.2154 15.0153 10.9994 15.4497 10.9994C19.3425 10.9994 23.2388 10.9994 27.1316 10.9994C27.7518 10.9994 27.7553 10.9994 27.7553 11.6371C27.7553 12.6882 27.7553 13.7359 27.7553 14.787C27.7553 15.3547 27.7448 15.3652 27.1597 15.3652C24.8331 15.3652 22.51 15.3652 20.1835 15.3652C19.6018 15.3652 19.5948 15.3722 19.5948 15.9503C19.5948 18.3435 19.5948 20.7366 19.5948 23.1298C19.5948 23.6588 19.6158 23.6764 20.1379 23.6764C21.9039 23.6764 23.6663 23.6764 25.4323 23.6764C25.8597 23.6764 26.0735 23.8959 26.0735 24.3351C26.0735 25.3862 26.0735 26.4339 26.0735 27.4851C26.0735 28.0247 26.0559 28.0422 25.4988 28.0422C23.7189 28.0422 21.9424 28.0422 20.1624 28.0422C19.6123 28.0422 19.5948 28.0597 19.5948 28.6063C19.5948 31.1396 19.5948 33.6729 19.5948 36.2062C19.5948 36.7598 19.6123 36.7773 20.1554 36.7773C22.496 36.7773 24.8331 36.7773 27.1737 36.7773C27.7448 36.7773 27.7553 36.7913 27.7553 37.373C27.7553 38.4522 27.7448 39.5278 27.7623 40.607C27.7693 40.9925 27.6642 41.1536 27.2438 41.1536C23.2669 41.1431 19.2865 41.1396 15.3096 41.1536C14.8471 41.1536 14.791 40.9469 14.791 40.565C14.798 35.7227 14.798 30.8803 14.798 26.038V26.0485Z" fill="white"/>
<path d="M80.0293 26.0835C80.0293 21.2692 80.0293 16.4549 80.0293 11.6441C80.0293 11.2143 80.2489 10.9994 80.688 10.9994C84.5808 10.9994 88.4736 10.9994 92.3699 10.9994C92.9796 10.9994 92.9831 11.0029 92.9831 11.602C92.9831 12.6532 92.9831 13.7008 92.9831 14.752C92.9831 15.3652 92.9831 15.3652 92.3804 15.3687C90.0679 15.3687 87.7588 15.3687 85.4463 15.3687C85.0328 15.3687 84.8261 15.5801 84.8261 16.0029C84.8261 18.382 84.8261 20.7611 84.8261 23.1403C84.8261 23.6623 84.8436 23.6799 85.3762 23.6799C87.1702 23.6799 88.9606 23.6799 90.7546 23.6799C91.2837 23.6799 91.3047 23.7044 91.3082 24.2195C91.3082 25.2986 91.3082 26.3743 91.3082 27.4535C91.3082 28.0352 91.2977 28.0492 90.7266 28.0492C88.9466 28.0492 87.1702 28.0492 85.3902 28.0492C84.8436 28.0492 84.8296 28.0632 84.8296 28.6168C84.8296 31.1501 84.8296 33.6834 84.8296 36.2167C84.8296 36.7703 84.8471 36.7843 85.3937 36.7843C87.7343 36.7843 90.0714 36.7843 92.412 36.7843C92.9691 36.7843 92.9866 36.8018 92.9866 37.3414C92.9866 38.4311 92.9761 39.5243 92.9936 40.614C93.0006 41.003 92.8885 41.1571 92.475 41.1571C88.4981 41.1466 84.5213 41.1431 80.5409 41.1571C80.0678 41.1571 80.0293 40.9364 80.0293 40.5615C80.0363 35.7332 80.0328 30.9048 80.0328 26.08L80.0293 26.0835Z" fill="white"/>
<path d="M-0.00244141 26.0835C-0.00244141 21.2692 -0.00244141 16.4549 -0.00244141 11.6371C-0.00244141 10.9994 -0.00244141 10.9959 0.617743 10.9959C4.3879 10.9959 8.15456 10.9959 11.9247 10.9959C12.5344 10.9959 12.5379 11.0029 12.5414 11.5985C12.5414 12.6637 12.5414 13.7254 12.5414 14.7905C12.5414 15.3442 12.5239 15.3617 11.9808 15.3617C9.78036 15.3617 7.58343 15.3617 5.383 15.3617C4.80486 15.3617 4.79786 15.3687 4.79786 15.9503C4.79786 18.5537 4.79786 21.1571 4.79786 23.7604C4.79786 24.3386 4.80837 24.3491 5.38651 24.3491C7.04033 24.3491 8.69416 24.3491 10.3445 24.3491C10.8876 24.3491 10.9261 24.3876 10.9261 24.9132C10.9261 26.0064 10.9156 27.0961 10.9331 28.1893C10.9401 28.5923 10.786 28.7254 10.39 28.7219C8.72219 28.7079 7.05435 28.7149 5.39001 28.7149C4.80486 28.7149 4.79786 28.7219 4.79786 29.2965C4.79786 33.0352 4.79786 36.7703 4.79786 40.5089C4.79786 40.9294 4.58879 41.1396 4.17066 41.1396C3.00738 41.1396 1.8441 41.1396 0.680813 41.1396C0.227646 41.1396 0.00106246 40.9177 0.00106246 40.4739C0.00106246 35.6736 0.00106246 30.8733 0.00106246 26.0695L-0.00244141 26.0835Z" fill="white"/>
<path d="M65.4111 26.073C65.4111 21.2867 65.4111 16.5004 65.4111 11.7142C65.4111 11.2376 65.6541 10.9994 66.1399 10.9994C67.3032 10.9994 68.4665 10.9994 69.6298 10.9994C70.1974 10.9994 70.2114 11.0134 70.2114 11.595C70.2114 19.7275 70.2114 27.86 70.2114 35.9889C70.2114 36.5192 70.4789 36.7843 71.0138 36.7843C73.1582 36.7843 75.299 36.7843 77.4434 36.7843C78.011 36.7843 78.0251 36.7983 78.0251 37.38C78.0251 38.4592 78.0251 39.5349 78.0251 40.614C78.0251 41.1291 78.0005 41.1536 77.4714 41.1536C73.6347 41.1536 69.7945 41.1536 65.9577 41.1536C65.4392 41.1536 65.4181 41.1326 65.4181 40.6035C65.4181 35.7612 65.4181 30.9188 65.4181 26.0765L65.4111 26.073Z" fill="white"/>
<path d="M185.005 39.668C184.147 40.6035 183.187 41.1361 182.052 41.3499C179.83 41.7668 178.141 40.7157 177.553 38.5328C177.377 37.881 177.286 37.2153 177.286 36.5426C177.279 32.401 177.272 28.2594 177.29 24.1178C177.293 23.0632 177.465 22.0225 177.98 21.0765C178.716 19.724 180.061 19.0723 181.6 19.251C182.84 19.3946 183.895 19.8501 184.669 20.9048C184.792 20.7226 184.746 20.5544 184.746 20.4002C184.746 17.1416 184.746 13.8795 184.746 10.6209C184.746 10.0253 184.771 9.99726 185.352 9.99726C186.319 9.99726 187.286 9.99726 188.25 9.99726C188.881 9.99726 188.891 10.0113 188.891 10.67C188.891 15.6665 188.891 20.6595 188.891 25.656C188.891 30.6526 188.891 35.5615 188.891 40.5159C188.891 40.9481 188.674 41.1642 188.239 41.1642C187.342 41.1642 186.445 41.1466 185.552 41.1712C185.138 41.1817 184.949 41.0625 184.991 40.6281C185.019 40.3513 184.995 40.0709 184.995 39.668H185.005ZM184.75 30.9889C184.75 30.8768 184.75 30.7647 184.75 30.6526C184.715 28.6273 184.823 26.5986 184.683 24.5733C184.644 24.0232 184.546 23.4871 184.287 23.0001C183.972 22.4115 183.467 22.1382 182.798 22.1872C182.237 22.2293 181.859 22.5972 181.659 23.2629C181.473 23.8866 181.435 24.5313 181.431 25.1725C181.421 28.6554 181.421 32.1347 181.431 35.6175C181.431 36.2728 181.48 36.928 181.663 37.5692C181.883 38.333 182.307 38.7009 183.012 38.722C183.8 38.743 184.315 38.3926 184.56 37.6428C184.697 37.2293 184.75 36.7983 184.746 36.3604C184.746 34.5699 184.746 32.7794 184.746 30.9924L184.75 30.9889Z" fill="white"/>
<path d="M156.333 39.5173C155.745 40.2461 155.054 40.7717 154.231 41.1221C153.043 41.6267 150.811 41.6162 149.694 40.3407C149 39.5524 148.719 38.6028 148.709 37.5937C148.681 34.9062 148.695 32.2188 148.691 29.5313C148.691 26.3813 148.691 23.2349 148.691 20.0849C148.691 19.4857 148.695 19.4822 149.305 19.4787C150.286 19.4787 151.267 19.4787 152.248 19.4787C152.822 19.4787 152.833 19.4892 152.833 20.0709C152.833 25.4458 152.833 30.8207 152.833 36.1922C152.833 36.3884 152.829 36.5846 152.84 36.7808C152.893 37.5867 153.302 38.1018 153.961 38.2034C154.862 38.3435 155.531 38.0037 155.843 37.2328C156.064 36.6897 156.074 36.1116 156.074 35.5404C156.081 31.3288 156.078 27.1136 156.078 22.902C156.078 21.9209 156.088 20.9433 156.071 19.9623C156.064 19.5978 156.197 19.4682 156.558 19.4717C157.609 19.4857 158.66 19.4892 159.708 19.4717C160.1 19.4647 160.216 19.6294 160.216 19.9973C160.209 26.8824 160.209 33.7675 160.216 40.6561C160.216 41.0345 160.096 41.1782 159.708 41.1677C158.74 41.1466 157.773 41.1501 156.81 41.1677C156.438 41.1747 156.309 41.0345 156.326 40.6736C156.347 40.2882 156.33 39.9028 156.33 39.5173H156.333Z" fill="white"/>
<path d="M166.925 21.3463C167.461 20.4948 168.109 19.9377 168.926 19.6364C170.394 19.0968 171.852 19.0758 173.152 20.0709C174.017 20.7331 174.385 21.7107 174.416 22.7618C174.609 28.7219 174.455 34.682 174.508 40.6456C174.508 41.038 174.346 41.1536 173.978 41.1501C172.983 41.1361 171.988 41.1501 170.993 41.1431C170.433 41.1431 170.401 41.1116 170.401 40.544C170.401 37.1277 170.401 33.7149 170.401 30.2987C170.401 28.326 170.401 26.3533 170.401 24.3771C170.401 24.2229 170.401 24.0688 170.397 23.9146C170.369 23.0772 169.956 22.5341 169.259 22.4185C168.309 22.2608 167.587 22.6357 167.293 23.4486C167.146 23.8621 167.107 24.293 167.107 24.731C167.111 29.9658 167.107 35.2006 167.107 40.4353C167.107 40.9049 166.867 41.1396 166.386 41.1396C165.447 41.1396 164.507 41.1291 163.568 41.1431C163.215 41.1501 163.067 41.038 163.067 40.6631C163.074 33.792 163.074 26.9174 163.067 20.0463C163.067 19.6889 163.18 19.5418 163.551 19.5488C164.504 19.5663 165.457 19.5628 166.41 19.5488C166.736 19.5453 166.859 19.6714 166.859 19.9938C166.859 20.3932 166.813 20.7962 166.922 21.3358L166.925 21.3463Z" fill="white"/>
<path d="M144.841 31.8263C144.841 34.7381 144.841 37.6498 144.841 40.558C144.841 41.1536 144.834 41.1571 144.224 41.1606C143.243 41.1606 142.262 41.1606 141.281 41.1606C140.71 41.1606 140.703 41.1536 140.703 40.565C140.703 34.7696 140.703 28.9777 140.703 23.1823C140.703 22.6801 140.454 22.4278 139.956 22.4255C139.662 22.4255 139.368 22.415 139.073 22.4255C138.744 22.4395 138.621 22.2853 138.628 21.9735C138.635 21.2867 138.635 20.6035 138.628 19.9167C138.625 19.5943 138.761 19.4612 139.084 19.4717C139.434 19.4857 139.784 19.4717 140.135 19.4717C140.703 19.4717 140.702 19.4717 140.706 18.9181C140.706 17.2958 140.71 15.67 140.706 14.0477C140.706 13.368 140.783 12.7057 141.028 12.0715C141.515 10.8102 142.581 10.3687 143.793 10.1795C144.802 10.0218 145.825 9.99725 146.848 9.99025C147.195 9.99025 147.314 10.1234 147.307 10.4668C147.29 11.2376 147.286 12.005 147.307 12.7758C147.318 13.1507 147.167 13.2839 146.813 13.2594C146.631 13.2453 146.449 13.2559 146.267 13.2594C145.454 13.2909 144.9 13.7394 144.872 14.5383C144.823 16.0765 144.848 17.6182 144.844 19.1564C144.844 19.4262 145.012 19.4752 145.233 19.4717C145.766 19.4717 146.298 19.4822 146.831 19.4682C147.164 19.4577 147.314 19.5698 147.304 19.9272C147.286 20.614 147.286 21.2972 147.304 21.984C147.311 22.3133 147.181 22.436 146.859 22.4255C146.368 22.4115 145.878 22.4465 145.387 22.415C144.967 22.3904 144.83 22.5341 144.83 22.9616C144.844 25.9153 144.837 28.8691 144.837 31.8193L144.841 31.8263Z" fill="white"/>
</svg>
