<svg width="200" height="79" viewBox="0 0 200 79" fill="none" xmlns="http://www.w3.org/2000/svg">
<path d="M57.5997 0.482179C55.3124 0.488622 53.0155 0.578823 50.7026 0.768888C35.3395 2.0478 20.7142 10.6136 20.6884 23.6186C20.6723 30.2129 25.4078 35.554 32.743 35.3189C41.3636 35.0321 48.4411 28.193 52.1458 19.5724C53.5535 16.3027 50.9474 14.9432 49.7103 16.8246C47.5004 20.2167 44.3821 22.8519 41.0125 24.4884C36.9567 26.4534 32.6206 25.9251 31.3063 22.6618C29.4571 18.0616 33.3003 11.1774 42.0659 7.93982C54.7261 3.29772 67.9727 6.36775 80.7199 8.73873C80.9004 8.73873 81.5801 9.11242 80.9777 9.42168C78.6937 10.6523 76.4483 11.6574 72.9466 14.6404C70.4371 16.7698 67.1512 19.6047 64.6095 22.6908C62.0871 25.7318 60.2992 28.4475 57.9315 31.4531C57.6029 31.888 57.197 31.8687 57.2002 31.8687C51.4338 32.8319 45.7866 33.4794 40.6194 37.0391C39.5499 37.7704 39.086 39.0654 39.7335 40.0576C40.3166 40.937 41.6471 41.0305 42.5749 40.3636C45.7866 37.9862 49.0951 36.8651 52.8835 36.7621C53.0478 36.7717 53.1283 36.8007 53.1734 36.9006C53.2024 36.9586 53.1863 37.0778 53.1154 37.168C47.436 44.9703 46.0154 46.7324 41.7405 51.571C39.5564 54.058 37.4044 56.1551 35.0012 58.3393C25.2983 67.2659 14.864 67.1113 11.1207 61.5124C8.88502 58.1557 9.17817 54.6314 10.6439 51.7063C12.4479 48.1241 16.0978 45.4986 19.1292 43.9652C20.2535 43.395 20.5789 41.9711 19.4513 40.6729C18.733 39.8256 16.9966 39.6775 15.7016 39.9094C11.7263 40.6375 7.03269 43.6108 4.25581 47.1899C1.13745 51.2006 -0.424948 56.0778 0.100147 61.5478C1.04081 71.4215 9.25548 77.1267 18.5751 77.0623C25.9941 77.0043 32.9846 74.7815 41.3926 66.3284C49.2304 58.4456 56.3691 46.6712 63.0568 35.7537C63.2662 35.4058 63.4176 35.2158 64.4323 35.0934C68.6267 34.5747 74.8183 33.982 78.7871 33.7565C79.6698 33.7081 79.8469 33.7178 80.2013 34.1559C81.2354 35.4477 82.7881 36.543 84.0316 37.2098C84.6372 37.5352 84.9272 37.6995 85.4039 37.7059C85.9934 37.7188 86.4477 37.4031 86.744 37.0713C87.1661 36.6139 87.282 36.0179 87.0533 35.6313C86.8149 35.2254 84.0477 33.7081 83.9672 33.0928C83.906 32.7095 84.3312 32.6161 84.3312 32.6161C86.3639 31.9847 88.4836 30.6832 89.7658 28.251C91.0253 25.8543 91.2315 22.6586 88.925 20.8803C86.9019 19.3179 83.8447 19.566 81.4029 21.734C79.019 23.8409 78.2266 26.898 78.5519 29.5847C78.6099 30.0486 78.5841 30.2064 77.9431 30.2612C74.2738 30.5511 70.7399 30.651 66.8098 30.8572C66.5456 30.8765 66.4618 30.7057 66.6165 30.5253C71.1426 22.7391 77.9012 17.195 85.3749 11.7347C85.871 11.3674 85.7196 10.6684 85.7003 10.0821C99.1981 12.9846 112.239 18.3902 126.242 18.2742C132.031 18.2259 137.575 17.3561 142.874 14.4761C147.536 11.9602 149.424 9.63107 149.562 7.21177C149.672 5.53984 148.496 4.48321 146.824 4.84079C132.675 8.05901 119.181 8.02357 105.106 6.33554C89.028 4.40912 73.6006 0.433858 57.5997 0.482179ZM85.8388 23.0452C86.1706 23.0613 86.4799 23.174 86.7279 23.3834C87.4721 24.0148 87.121 25.5869 86.3671 26.6757C85.5425 27.8773 84.1476 28.9146 82.8751 29.1691C82.6206 29.2174 82.3983 29.1079 82.292 28.5474C82.0858 27.0655 82.5723 25.0779 84.1733 23.6798C84.6759 23.2417 85.2847 23.0129 85.8356 23.0419L85.8388 23.0452ZM199.414 23.3351C196.843 23.3351 193.467 23.3415 190.787 23.3415C190.149 23.3415 189.817 23.4188 189.518 24.0051C188.529 25.8832 176.474 43.7719 174.229 47.2446C173.852 47.7729 173.391 47.6989 173.336 47.0964C173.111 45.0347 171.31 42.6605 168.475 41.5266C166.314 40.6568 164.2 40.5022 162.007 40.7889C158.041 41.3172 154.51 43.3886 151.402 45.7241C146.721 49.2484 142.681 53.8164 137.469 57.1892C134.621 59.0254 130.726 60.6265 128.117 58.2362C125.756 56.0714 126.023 51.2585 129.634 47.5346C130.014 47.1448 130.472 47.4701 130.401 47.8213C130.06 49.5061 130.478 51.178 131.77 52.3538C133.345 53.7519 135.6 53.9098 137.53 52.9788C139.808 51.861 141.145 49.7058 141.534 47.2575C142.14 43.4594 139.186 40.1091 135.491 39.8418C132.489 39.6324 129.612 40.6664 126.806 42.9601C125.401 44.1134 124.599 44.9671 123.385 46.6809C123.088 47.1029 122.634 47.1448 122.647 46.523C122.789 41.6586 120.756 38.9236 116.694 38.8334C113.543 38.7594 110.177 40.4506 107.551 42.5252C104.675 44.8124 102.159 47.8438 99.4623 50.6916C99.1273 51.0427 98.8341 51.0266 98.7407 50.3469C98.6602 47.1254 97.8419 44.0039 96.3343 41.7875C95.8027 41.0176 94.6817 40.6342 93.7378 41.1561C93.3029 41.3913 91.7888 42.0807 90.6871 42.9601C90.1395 43.4047 89.9268 44.0522 90.1684 44.8801C91.6245 49.6929 91.3024 55.1662 89.3309 59.7889C87.5204 64.0219 83.9994 67.8393 79.863 69.1311C77.1377 69.9848 74.3028 69.566 72.5504 67.1757C70.1407 63.8737 71.1136 58.1331 74.7023 53.3654C77.8722 49.1678 82.4499 46.5005 87.0211 44.7834C87.5591 44.5773 87.6686 44.2358 87.5172 43.7848C87.2691 43.0406 86.8729 42.0291 86.7118 41.5652C86.2931 40.4603 85.1172 40.2799 83.6869 40.4345C80.3656 40.8179 77.3729 41.9421 74.4124 43.511C66.6648 47.6183 62.7797 55.5688 61.0788 59.8244C60.2606 61.8668 59.5583 63.1424 58.6531 64.2732C57.4321 65.7937 55.8987 67.1757 53.0961 69.6143C52.8416 69.8366 52.6547 70.3037 52.8674 70.7386C53.1541 71.3249 54.6102 73.3641 55.0225 73.5445C55.48 73.7668 56.0083 73.4575 56.2209 73.3061C58.1827 71.9885 60.528 69.9043 61.678 68.4868C62.0807 68.0036 62.493 68.2065 62.7089 68.941C63.7816 72.7295 66.5875 75.8188 70.4693 77.1106C77.5726 79.4816 84.9433 76.0475 90.5035 70.0718C94.0374 66.2737 95.3131 63.8286 96.6693 62.1696C98.9662 59.3508 103.496 53.0497 108.888 49.0035C110.866 47.512 113.208 46.3748 114.384 47.1287C115.328 47.7343 115.634 49.1453 114.117 51.8738C108.618 61.8184 100.525 73.5026 99.0403 76.3343C98.7697 76.8271 99.0049 77.2137 99.5235 77.2137C102.4 77.2008 105.254 77.2073 107.867 77.2073C108.302 77.1879 108.498 76.9914 108.714 76.6854C112.934 70.1426 116.906 63.9156 121.165 57.4791C121.404 57.099 121.623 57.3922 121.632 57.5597C121.719 59.0544 122.09 61.0968 122.985 62.437C124.596 64.9175 126.877 65.9838 129.406 65.9999C131.419 66.0224 132.437 65.7196 134.605 64.9175C136.37 64.27 137.788 63.4163 138.877 62.6463C139.511 62.2082 139.624 62.9427 139.608 63.0522C138.632 68.2452 139.837 74.3982 145.052 76.9495C151.289 79.9938 158.144 75.7157 162.087 71.85C162.474 71.4763 162.886 71.5182 162.928 72.3203C163.012 73.7958 163.685 75.5482 164.919 76.7724C168.224 80.055 174.892 78.7536 181.583 73.625C185.881 70.3424 190.375 65.7035 194.437 60.7876C194.588 60.5975 194.698 60.2915 194.408 59.9822C193.789 59.3411 192.894 58.6067 192.282 58.0429C192.001 57.8077 191.592 57.8754 191.354 58.0526C187.192 61.9731 183.445 66.4412 178.03 70.1394C176.203 71.4022 173.295 72.4202 171.983 70.6677C171.474 69.988 171.532 69.0441 172.035 67.8103C173.617 63.9091 198.615 26.2247 199.913 23.9987C200.136 23.6121 199.9 23.3286 199.408 23.3286L199.414 23.3351ZM164.381 46.8967C165.035 46.8903 165.647 47.0159 166.207 47.2801C169.287 48.7362 168.304 52.2636 166.926 55.0373C166.823 55.2499 166.816 55.4335 166.871 55.6075C166.923 55.8974 167.303 56.1745 167.673 56.3065C167.802 56.3549 167.876 56.4483 167.728 56.7511C166.665 59.0061 165.689 60.3076 164.355 62.2662C163.131 64.0767 161.749 65.4909 160.077 66.8503C157.555 68.9153 154.053 71.1671 151.16 69.653C149.875 68.9926 149.317 67.2111 149.343 65.7679C149.411 61.7121 151.228 57.5468 154.591 53.4556C157.925 49.3933 161.543 46.9193 164.378 46.8935L164.381 46.8967Z" fill="white"/>
</svg>
