<svg width="200" height="92" viewBox="0 0 200 92" fill="none" xmlns="http://www.w3.org/2000/svg">
<mask id="mask0_11_308" style="mask-type:luminance" maskUnits="userSpaceOnUse" x="-1" y="0" width="201" height="92">
<path d="M199.998 0H-0.00244141V91.0535H199.998V0Z" fill="white"/>
</mask>
<g mask="url(#mask0_11_308)">
<path d="M198.78 90.1838L198.374 89.1633C198.606 88.9662 198.641 88.8271 198.641 88.6183C198.641 88.2356 198.363 88.0037 197.922 88.0037H197.365V90.1954H197.678V89.2097H198.061L198.455 90.1838H198.78ZM197.678 88.9546V88.2704H197.887C198.189 88.2704 198.316 88.398 198.316 88.6067C198.316 88.7807 198.223 88.9662 197.887 88.9662H197.678V88.9546Z" fill="white"/>
</g>
<mask id="mask1_11_308" style="mask-type:luminance" maskUnits="userSpaceOnUse" x="-1" y="0" width="201" height="92">
<path d="M199.998 0H-0.00244141V91.0535H199.998V0Z" fill="white"/>
</mask>
<g mask="url(#mask1_11_308)">
<path d="M198.015 91.0535C196.913 91.0535 196.032 90.1606 196.032 89.0705C196.032 87.9805 196.925 87.0876 198.015 87.0876C199.105 87.0876 199.998 87.9805 199.998 89.0705C199.998 90.1606 199.105 91.0535 198.015 91.0535ZM198.015 87.3311C197.064 87.3311 196.275 88.1081 196.275 89.0589C196.275 90.0098 197.052 90.7868 198.015 90.7868C198.977 90.7868 199.743 90.0214 199.743 89.0589C199.743 88.0965 198.966 87.3311 198.015 87.3311Z" fill="white"/>
</g>
<mask id="mask2_11_308" style="mask-type:luminance" maskUnits="userSpaceOnUse" x="-1" y="0" width="201" height="92">
<path d="M199.998 0H-0.00244141V91.0535H199.998V0Z" fill="white"/>
</mask>
<g mask="url(#mask2_11_308)">
<path d="M93.4167 70.5862L88.0824 87.1456L81.6581 70.6905H80.0115L87.7346 90.8796H88.4535L93.9733 73.0794L99.5859 90.8796H100.316L108.005 70.6905H106.312L99.9802 87.134L94.5763 70.5862H93.4051H93.4167Z" fill="white"/>
</g>
<mask id="mask3_11_308" style="mask-type:luminance" maskUnits="userSpaceOnUse" x="-1" y="0" width="201" height="92">
<path d="M199.998 0H-0.00244141V91.0535H199.998V0Z" fill="white"/>
</mask>
<g mask="url(#mask3_11_308)">
<path d="M114.684 70.6674V90.7172H124.494V89.43H116.238V70.679H114.684V70.6674Z" fill="white"/>
</g>
<mask id="mask4_11_308" style="mask-type:luminance" maskUnits="userSpaceOnUse" x="-1" y="0" width="201" height="92">
<path d="M199.998 0H-0.00244141V91.0535H199.998V0Z" fill="white"/>
</mask>
<g mask="url(#mask4_11_308)">
<path d="M127.347 70.6674V90.7172H137.158V89.43H128.901V70.679H127.359L127.347 70.6674Z" fill="white"/>
</g>
<mask id="mask5_11_308" style="mask-type:luminance" maskUnits="userSpaceOnUse" x="-1" y="0" width="201" height="92">
<path d="M199.998 0H-0.00244141V91.0535H199.998V0Z" fill="white"/>
</mask>
<g mask="url(#mask5_11_308)">
<path d="M139.895 90.7172H141.448V70.679H139.895V90.7172Z" fill="white"/>
</g>
<mask id="mask6_11_308" style="mask-type:luminance" maskUnits="userSpaceOnUse" x="-1" y="0" width="201" height="92">
<path d="M199.998 0H-0.00244141V91.0535H199.998V0Z" fill="white"/>
</mask>
<g mask="url(#mask6_11_308)">
<path d="M110.266 90.7172H111.831V70.679H110.266V90.7172Z" fill="white"/>
</g>
<mask id="mask7_11_308" style="mask-type:luminance" maskUnits="userSpaceOnUse" x="-1" y="0" width="201" height="92">
<path d="M199.998 0H-0.00244141V91.0535H199.998V0Z" fill="white"/>
</mask>
<g mask="url(#mask7_11_308)">
<path d="M151.931 70.563L143.64 90.7172H145.09L147.931 83.7943H156.697L159.527 90.7172H160.976L152.685 70.563H151.931ZM152.291 73.0793L156.164 82.4955H148.453L152.291 73.0793Z" fill="white"/>
</g>
<mask id="mask8_11_308" style="mask-type:luminance" maskUnits="userSpaceOnUse" x="-1" y="0" width="201" height="92">
<path d="M199.998 0H-0.00244141V91.0535H199.998V0Z" fill="white"/>
</mask>
<g mask="url(#mask8_11_308)">
<path d="M179.936 70.7021L172.306 80.0023L164.675 70.7021H163.122V90.7056H164.675V72.9634H164.733L172.306 82.3099L179.867 72.9634H179.925V90.7056H181.478V70.7021H179.925H179.936Z" fill="white"/>
</g>
<mask id="mask9_11_308" style="mask-type:luminance" maskUnits="userSpaceOnUse" x="-1" y="0" width="201" height="92">
<path d="M199.998 0H-0.00244141V91.0535H199.998V0Z" fill="white"/>
</mask>
<g mask="url(#mask9_11_308)">
<path d="M194.35 73.9491C193.086 72.314 191.277 71.9197 189.897 71.9197C187.497 71.9197 185.676 73.5664 185.676 75.7465C185.676 81.0807 195.208 78.5296 195.208 85.5453C195.208 88.6183 192.657 91.0303 189.399 91.0303C187.764 91.0303 186.001 90.578 184.261 89.2677V87.4471C186.21 89.2909 187.752 89.5924 189.306 89.5924C191.683 89.5924 193.527 87.8645 193.527 85.6033C193.527 79.9095 184.006 82.4027 184.006 75.8045C184.006 72.8474 186.581 70.505 189.758 70.4934C191.37 70.4934 193.434 71.1544 194.35 72.256V73.9607V73.9491Z" fill="white"/>
</g>
<mask id="mask10_11_308" style="mask-type:luminance" maskUnits="userSpaceOnUse" x="-1" y="0" width="201" height="92">
<path d="M199.998 0H-0.00244141V91.0535H199.998V0Z" fill="white"/>
</mask>
<g mask="url(#mask10_11_308)">
<path d="M29.9043 70.7253V90.7636H40.2017V88.1776H32.7802V70.7253H29.9043Z" fill="white"/>
</g>
<mask id="mask11_11_308" style="mask-type:luminance" maskUnits="userSpaceOnUse" x="-1" y="0" width="201" height="92">
<path d="M199.998 0H-0.00244141V91.0535H199.998V0Z" fill="white"/>
</mask>
<g mask="url(#mask11_11_308)">
<path d="M42.0454 70.7253V90.7636H52.3429V88.1776H44.9213V70.7253H42.0454Z" fill="white"/>
</g>
<mask id="mask12_11_308" style="mask-type:luminance" maskUnits="userSpaceOnUse" x="-1" y="0" width="201" height="92">
<path d="M199.998 0H-0.00244141V91.0535H199.998V0Z" fill="white"/>
</mask>
<g mask="url(#mask12_11_308)">
<path d="M54.21 70.7253V90.7636H65.8526V88.1776H57.0974V81.9505H65.2959V79.3645H57.0974V73.3113H65.5859V70.7253H54.21Z" fill="white"/>
<path d="M80.6376 90.7636L76.9268 81.4054C79.13 79.5848 79.3852 78.344 79.362 76.3379C79.3272 72.8706 76.8456 70.7253 72.7869 70.7253H67.731V90.7636H70.6068V81.7997C70.6068 81.7997 72.984 81.7997 74.0393 81.7997L77.6573 90.7636H80.6376ZM70.5952 79.4921V73.2069H72.4506C75.2453 73.2069 76.3585 74.3549 76.3933 76.2335C76.4281 77.915 75.5352 79.4921 72.4506 79.4921H70.5952Z" fill="white"/>
</g>
<mask id="mask13_11_308" style="mask-type:luminance" maskUnits="userSpaceOnUse" x="-1" y="0" width="201" height="92">
<path d="M199.998 0H-0.00244141V91.0535H199.998V0Z" fill="white"/>
</mask>
<g mask="url(#mask13_11_308)">
<path d="M16.406 70.7253V90.7288H28.0254V88.1428H19.2819V81.9273H27.4688V79.3529H19.2819V73.3113H27.7587V70.7253H16.406Z" fill="white"/>
</g>
<mask id="mask14_11_308" style="mask-type:luminance" maskUnits="userSpaceOnUse" x="-1" y="0" width="201" height="92">
<path d="M199.998 0H-0.00244141V91.0535H199.998V0Z" fill="white"/>
</mask>
<g mask="url(#mask14_11_308)">
<path d="M11.2807 70.7253L10.2602 71.827L2.88502 79.8516V70.7253H-0.00244141V90.694H2.87342V83.8407L6.07398 80.3386L10.2602 90.7056H13.2288L12.1852 88.1313L8.12651 78.1005L12.4983 73.3229L14.8523 70.7485H11.2807V70.7253Z" fill="white"/>
<path d="M-0.00244141 0V60.625H8.4512V46.4081L14.6552 40.2389L23.2828 60.625H31.8524L20.4649 33.5827L28.4663 24.7231L43.9704 60.625H47.229L58.86 32.8521L70.6881 60.625H73.9003L91.6193 19.7368H82.9453L72.2768 44.5411L61.933 19.7368H55.9493L45.5127 44.5411L34.7862 19.7368H23.5379L8.4628 34.7771V0H-0.00244141Z" fill="white"/>
</g>
</svg>
