<svg width="190" height="59" viewBox="0 0 190 59" fill="none" xmlns="http://www.w3.org/2000/svg">
<path fill-rule="evenodd" clip-rule="evenodd" d="M190 0.892593V58.1609H0.000488281V0.892593H190ZM189.186 1.59143H98.7647V57.46H189.186V1.59143ZM70.6882 11.4404C70.013 13.7407 68.751 16.2997 68.6687 18.4349C70.6882 15.5316 73.8732 14.8409 77.1547 14.6657C79.4254 14.411 81.7906 15.5459 82.6326 17.4121C83.3017 19.1134 83.7217 21.756 81.7906 23.1231L81.4536 23.3151C75.8868 26.4103 67.3005 27.5492 66.2311 35.5739C65.3872 40.2641 65.7248 45.4656 69.5106 48.7052C72.2013 50.5816 75.734 51.1807 79.1803 50.5816C82.0438 50.1518 80.9446 46.4029 82.7953 45.0378C83.3017 47.3421 85.3956 49.6465 87.584 50.5022C93.0297 53.1447 92.051 46.6555 93.729 44.612L93.6478 44.6131L93.5963 44.6173L93.5592 44.625C93.495 44.6432 93.4365 44.6858 93.1422 44.7831C91.8822 45.2945 90.2867 45.0378 89.6939 43.7583L89.7277 27.244L89.7087 20.8026C89.7007 19.8151 89.6899 19.0867 89.6755 18.7236L89.6698 18.602C89.5553 16.6033 88.6872 14.5068 88.6872 14.5068C85.4037 7.8586 76.156 8.88343 70.6882 11.4404ZM44.8482 11.2917C39.4306 14.5027 37.6 20.3257 36.2657 25.8207C34.8852 34.5653 36.5973 42.8761 43.2647 48.367C48.0111 51.9956 55.5085 51.4088 60.5041 48.534C61.1361 46.2158 62.1397 43.5173 62.5973 41.3705L62.6683 41.0179L61.0849 43.0492C58.354 45.9648 52.2572 45.92 48.5115 44.3145C45.8449 43.1735 44.5126 40.7653 43.5139 38.6565C42.6593 36.2702 42.4459 33.8285 43.1897 31.9148L43.2647 31.7313H64.8386C65.5077 24.6328 64.4206 17.7952 59.6722 12.6466C55.8441 8.84472 49.2872 8.90788 44.8482 11.2917ZM21.8516 10.0122C18.6465 10.4706 16.3055 12.7016 14.8948 15.4745C14.7099 14.1156 14.7099 12.669 14.728 11.1898C11.9466 12.9944 8.94641 14.6482 6.33516 16.5006L5.78178 16.9007H6.52931C7.63453 17.0678 8.34991 19.0197 8.37402 20.1932C8.37402 28.8707 8.27957 38.0005 8.26149 46.2276C8.1699 47.5612 6.76698 49.232 5.31881 50.1736L5.18295 50.2597L17.2981 50.3249C16.3355 49.7559 15.0196 47.6868 14.8418 46.4603L14.8285 46.3478L14.8204 25.57L14.8669 25.0362C15.113 22.279 15.4744 19.5465 17.1072 17.4162C18.5159 15.1465 21.3412 15.0854 23.4974 15.5071C25.2264 16.1628 26.5185 17.6138 26.7663 19.673L26.7849 19.851L26.6885 46.1523C26.2099 47.7711 25.3071 49.085 23.618 50.2017L23.4271 50.3249H36.2355C34.7071 49.9984 33.5256 47.8222 33.0025 46.4654L32.9581 46.3478V21.1244C32.936 16.9395 32.0417 14.5434 29.8032 12.1963C27.2672 10.0753 25.3803 9.66377 21.8516 10.0122ZM140.11 40.6643C141.18 40.6643 141.989 40.8287 142.584 41.0081L142.756 41.0622L142.835 43.2706H142.451C142.399 42.5974 141.669 41.3013 140.241 41.3013C138.295 41.3013 137.978 43.3791 137.978 45.0309C137.978 47.1228 138.705 49.0037 140.546 49.0037C141.718 49.0037 142.362 48.6553 142.776 48.3834L142.861 48.3265V49.2408C142.413 49.4377 141.683 49.7452 140.319 49.7452C137.449 49.7452 136.418 48.009 136.418 45.0309C136.418 42.6256 137.158 40.6643 140.11 40.6643ZM117.245 40.6661C118.057 40.6661 118.859 40.8113 119.292 40.8835L119.401 40.9012L119.481 42.9549H119.097C118.991 42.2396 118.647 41.3011 117.245 41.3011C116.174 41.3011 115.577 41.8437 115.577 42.5309C115.577 43.827 117.827 44.4379 118.818 45.2056C119.467 45.7059 119.929 46.2887 119.929 47.1889C119.929 49.0537 118.488 49.743 116.477 49.743C115.519 49.743 114.717 49.542 114.243 49.4188L114.122 49.3873L114.043 47.203H114.425C114.586 47.8762 114.889 49.108 116.622 49.108C117.775 49.108 118.422 48.485 118.422 47.6772C118.422 46.3811 116.875 45.9049 115.657 45.1252C114.863 44.6087 114.214 43.9737 114.214 42.9147C114.214 41.484 115.311 40.6661 117.245 40.6661ZM124.072 40.6661C124.884 40.6661 125.686 40.8113 126.119 40.8835L126.228 40.9012L126.308 42.9549H125.925C125.818 42.2396 125.474 41.3011 124.072 41.3011C123.001 41.3011 122.404 41.8437 122.404 42.5309C122.404 43.827 124.655 44.4379 125.647 45.2056C126.294 45.7059 126.758 46.2887 126.758 47.1889C126.758 49.0537 125.316 49.743 123.304 49.743C122.346 49.743 121.544 49.542 121.07 49.4188L120.949 49.3873L120.871 47.203H121.253C121.413 47.8762 121.717 49.108 123.451 49.108C124.602 49.108 125.249 48.485 125.249 47.6772C125.249 46.3811 123.702 45.9049 122.484 45.1252C121.691 44.6087 121.044 43.9737 121.044 42.9147C121.044 41.484 122.141 40.6661 124.072 40.6661ZM131.587 40.6649C134.354 40.6649 135.2 42.385 135.2 45.2064C135.2 48.0237 134.354 49.7418 131.587 49.7418C128.836 49.7418 127.976 48.0237 127.976 45.2064C127.976 42.385 128.836 40.6649 131.587 40.6649ZM170.859 40.6649C173.626 40.6649 174.47 42.385 174.47 45.2064C174.47 48.0237 173.626 49.7418 170.859 49.7418C168.108 49.7418 167.246 48.0237 167.246 45.2064C167.246 42.385 168.108 40.6649 170.859 40.6649ZM162.616 40.7961L162.682 42.8478H162.298C162.171 41.9118 161.889 41.4499 160.654 41.4099L160.471 41.407H159.969V48.0484C159.969 49.0277 160.149 49.258 160.961 49.2786L161.094 49.2802V49.6097H157.389V49.2802C158.269 49.2802 158.492 49.0988 158.513 48.1969L158.514 48.0484V41.407H157.998C156.672 41.407 156.358 41.841 156.206 42.7193L156.185 42.8478H155.801L155.88 40.7961H162.616ZM166.876 40.7961V41.1297C165.995 41.1297 165.773 41.3093 165.753 42.2093L165.751 42.3575V48.0484C165.751 49.0277 165.929 49.258 166.743 49.2786L166.876 49.2802V49.6097H163.171V49.2802C164.062 49.2802 164.276 49.0988 164.295 48.1969L164.296 48.0484V42.3575C164.296 41.3801 164.128 41.1517 163.306 41.1313L163.171 41.1297V40.7961H166.876ZM177.369 40.7961L181.511 47.9017H181.537V42.3575C181.537 41.3801 181.357 41.1517 180.545 41.1313L180.412 41.1297V40.7961H183.494V41.1297C182.589 41.1297 182.39 41.3093 182.372 42.2093L182.371 42.3575V49.6097H181.113L176.76 42.1345H176.734V48.0484C176.734 49.0277 176.901 49.258 177.724 49.2786L177.86 49.2802V49.6097H174.775V49.2802C175.655 49.2802 175.879 49.0988 175.899 48.1969L175.9 48.0484V42.3575C175.9 41.3801 175.721 41.1517 174.909 41.1313L174.775 41.1297V40.7961H177.369ZM109.399 40.7963L112.097 48.0606C112.447 48.9817 112.737 49.2495 113.542 49.2778L113.699 49.2804V49.6099H109.927V49.2804C110.444 49.2804 110.922 49.2261 110.922 48.8162C110.922 48.6971 110.899 48.5702 110.86 48.4472L110.815 48.3259L110.287 46.8971H106.859L106.356 48.2455C106.29 48.4063 106.236 48.5771 106.236 48.7519C106.236 49.1307 106.487 49.2617 107.084 49.2785L107.228 49.2804V49.6099H104.001V49.2804C104.863 49.2804 105.206 49.0187 105.587 48.0636L105.655 47.8878L108.314 40.7963H109.399ZM147.439 40.7969V41.1305C146.559 41.1305 146.336 41.3082 146.315 42.2099L146.314 42.3583V48.0492C146.314 49.0559 146.515 49.2649 147.387 49.275C148.211 49.2636 148.555 49.0031 148.93 48.0711L149 47.8884L151.661 40.7969H152.744L155.445 48.0612C155.793 48.9823 156.082 49.2483 156.887 49.2764L157.044 49.279V49.6085H153.275V49.279C153.791 49.279 154.267 49.2267 154.267 48.8168C154.267 48.6977 154.245 48.5708 154.205 48.4478L154.161 48.3265L153.632 46.8977H150.204L149.702 48.2461C149.637 48.4069 149.581 48.5777 149.581 48.7525C149.581 49.1313 149.834 49.2606 150.43 49.2771L150.574 49.279V49.6085H143.734V49.279C144.627 49.279 144.84 49.0994 144.859 48.1977L144.861 48.0492V42.3583C144.861 41.379 144.692 41.1523 143.869 41.1321L143.734 41.1305V40.7969H147.439ZM131.587 41.2999C129.815 41.2999 129.538 43.1386 129.538 45.2064C129.538 47.2801 129.815 49.1068 131.587 49.1068C133.348 49.1068 133.639 47.2801 133.639 45.2064C133.639 43.1386 133.348 41.2999 131.587 41.2999ZM170.859 41.2999C169.086 41.2999 168.809 43.1386 168.809 45.2064C168.809 47.2801 169.086 49.1068 170.859 49.1068C172.619 49.1068 172.91 47.2801 172.91 45.2064C172.91 43.1386 172.619 41.2999 170.859 41.2999ZM151.938 42.292L150.429 46.2889H153.407L151.938 42.292ZM108.592 42.2916L107.084 46.2883H110.062L108.592 42.2916ZM82.7955 27.0227V43.171C81.0332 44.5193 78.5937 44.9393 76.323 44.4329C74.7214 43.7577 73.2103 42.753 72.5371 40.9846C72.0347 38.0387 72.1131 34.2569 74.9766 32.0685C77.3318 29.7958 80.2757 28.8775 82.7955 27.0227ZM136.829 25.7481C138.034 25.7481 138.94 25.9288 139.604 26.1199L139.779 26.1721L139.868 28.5413H139.44C139.381 27.8179 138.571 26.4293 136.978 26.4293C134.81 26.4293 134.456 28.6538 134.456 30.4282C134.456 32.6688 135.268 34.6803 137.318 34.6803C138.631 34.6803 139.347 34.3094 139.809 34.0163L139.898 33.9589V34.9355C139.395 35.1505 138.586 35.476 137.066 35.476C133.867 35.476 132.716 33.6173 132.716 30.4282C132.716 27.846 133.542 25.7481 136.829 25.7481ZM168.965 25.7483C172.047 25.7483 172.992 27.591 172.992 30.6113C172.992 33.6315 172.047 35.4762 168.965 35.4762C165.896 35.4762 164.94 33.6315 164.94 30.6113C164.94 27.591 165.896 25.7483 168.965 25.7483ZM126.522 25.8908V26.2444C125.538 26.2444 125.291 26.4376 125.269 27.4125L125.268 27.5647V32.299C125.268 33.7177 125.535 34.8229 127.378 34.8229C129.069 34.8229 129.623 34.1241 129.66 32.485L129.662 32.299V27.5647C129.662 26.5102 129.462 26.2668 128.551 26.246L128.408 26.2444V25.8908H131.993V26.2444C131.01 26.2444 130.762 26.4376 130.741 27.4125L130.739 27.5647V32.299C130.739 33.9026 130.225 35.476 127.185 35.476C124.703 35.476 123.711 34.4391 123.649 32.4963L123.646 32.299V27.5647C123.646 26.5102 123.445 26.2668 122.534 26.246L122.392 26.2444V25.8908H126.522ZM163.641 25.8908V26.2424C162.657 26.2424 162.411 26.4375 162.39 27.4125L162.389 27.5647V33.6615C162.389 34.714 162.587 34.9574 163.499 34.9782L163.641 34.9797V35.3354H159.511V34.9797C160.508 34.9797 160.743 34.7865 160.764 33.8134L160.765 33.6615V27.5647C160.765 26.5102 160.577 26.2649 159.655 26.244L159.511 26.2424V25.8908H163.641ZM158.155 25.8902L158.229 28.0886H157.801C157.659 27.0852 157.344 26.5875 155.961 26.5461L155.766 26.5433H155.205V33.6609C155.205 34.7134 155.406 34.9568 156.317 34.9776L156.459 34.9791V35.3348H152.33V34.9791C153.313 34.9791 153.561 34.7859 153.582 33.8128L153.584 33.6609V26.5433H153.007C151.527 26.5433 151.179 27.0084 151.011 27.9563L150.989 28.0886H150.561L150.648 25.8902H158.155ZM176.811 25.8894L181.424 33.5033H181.454V27.5633C181.454 26.5088 181.254 26.2654 180.343 26.2446L180.201 26.243V25.8894H183.637V26.243C182.624 26.243 182.402 26.4371 182.384 27.4178L182.383 27.5633V35.334H180.982L176.131 27.3221H176.101V33.6601C176.101 34.7126 176.289 34.9578 177.211 34.9788L177.355 34.9803V35.334H173.919V34.9803C174.903 34.9803 175.15 34.7853 175.171 33.812L175.173 33.6601V27.5633C175.173 26.5088 174.972 26.2654 174.061 26.2446L173.919 26.243V25.8894H176.811ZM111.231 25.8894L111.317 27.9471H110.891C110.833 27.2134 110.656 26.5959 109.187 26.5457L108.988 26.5425H108.044C107.366 26.5425 107.182 26.742 107.162 27.421L107.16 27.5633V30.0731H109.091C110.001 30.0731 110.18 29.8964 110.197 29.0816L110.198 28.9398H110.596V31.8756H110.198C110.198 31.0709 110.067 30.7592 109.243 30.727L109.091 30.7242H107.16V33.6601C107.16 34.5586 107.264 34.6708 107.928 34.6802L108.044 34.6809H109.402C110.607 34.6809 111.039 34.2202 111.117 33.4075L111.126 33.2762H111.554L111.466 35.334H104.284V34.9803C105.268 34.9803 105.513 34.7853 105.534 33.812L105.536 33.6601V27.5633C105.536 26.5088 105.337 26.2654 104.426 26.2446L104.284 26.243V25.8894H111.231ZM146.563 25.8896L149.571 33.6743C149.962 34.6669 150.287 34.9497 151.19 34.978L151.355 34.9805V35.3321H147.154V34.9805C147.728 34.9805 148.259 34.9222 148.259 34.4841C148.259 34.356 148.234 34.22 148.191 34.0888L148.142 33.9597L147.551 32.4284H143.731L143.171 33.8733C143.098 34.0441 143.04 34.2289 143.04 34.4118C143.04 34.8225 143.322 34.962 143.995 34.9787L144.145 34.9805V35.3321H140.546V34.9805C141.512 34.9805 141.892 34.6991 142.319 33.6683L142.391 33.4894L145.353 25.8896H146.563ZM113.028 25.8898H116.848C119.649 25.8898 121.67 26.6252 121.67 30.5819C121.67 34.5902 119.78 35.3017 117.036 35.3314L116.848 35.3324H113.028V34.9787C114.025 34.9787 114.26 34.7855 114.28 33.8123L114.282 33.6605V27.5637C114.282 26.5092 114.094 26.2676 113.172 26.247L113.028 26.2455V25.8898ZM168.965 26.4275C166.989 26.4275 166.678 28.3988 166.678 30.6113C166.678 32.8378 166.989 34.795 168.965 34.795C170.926 34.795 171.251 32.8378 171.251 30.6113C171.251 28.3988 170.926 26.4275 168.965 26.4275ZM116.848 26.5408C116.109 26.5408 115.923 26.6699 115.905 27.424L115.903 27.5637V33.6605C115.903 34.3698 115.947 34.6813 116.848 34.6813C119.384 34.6813 119.93 33.4193 119.93 30.5819C119.93 27.9736 119.621 26.5408 116.848 26.5408ZM145.665 27.4931L143.983 31.7754H147.302L145.665 27.4931ZM51.6734 11.4828C56.9242 15.3169 59.5888 20.8108 60.5031 26.7267C55.4231 29.4777 47.8433 29.2205 42.679 26.8935C43.3441 20.8108 46.3443 15.3169 51.6734 11.4828ZM49.8428 24.1425C49.0912 24.0601 47.5942 24.0601 48.0945 25.308C48.2613 25.9752 48.3417 26.7247 49.26 26.7247C50.094 26.2264 50.2608 24.9785 49.8428 24.1425ZM54.6736 23.7286C54.0105 23.8069 52.5074 23.395 53.0901 24.7273C53.3413 25.31 53.2589 26.8091 54.5068 26.3108C55.2563 25.6416 54.5912 24.5585 54.6736 23.7286ZM45.6771 20.1436L46.8426 21.8959L45.6771 23.7286L55.8431 22.7299L45.6771 20.1436ZM56.2551 18.315C53.0881 19.1449 50.1743 15.8132 47.0918 18.1462C47.1762 19.0605 49.1776 18.6446 48.6773 20.1436C49.7604 20.4752 50.7591 20.3948 50.8415 19.1449C53.5945 18.315 51.7578 22.6434 54.5068 21.3112C54.1732 19.6453 56.2551 19.8945 56.673 18.731L56.2551 18.315ZM146.38 9.54381C149.673 9.54381 150.68 11.5111 150.68 14.7403C150.68 17.9656 149.673 19.9349 146.38 19.9349C143.104 19.9349 142.079 17.9656 142.079 14.7403C142.079 11.5111 143.104 9.54381 146.38 9.54381ZM121.35 9.69331L124.564 18.0086C124.98 19.0727 125.329 19.3722 126.301 19.4008L126.469 19.4031V19.7829H121.979V19.4031C122.594 19.4031 123.161 19.3429 123.161 18.8747C123.161 18.7375 123.135 18.5913 123.088 18.4513L123.034 18.314L122.405 16.6783H118.324L117.727 18.2236C117.649 18.4024 117.585 18.6014 117.585 18.7983C117.585 19.2372 117.887 19.3837 118.606 19.4013L118.766 19.4031V19.7829H114.922V19.4031C115.955 19.4031 116.362 19.1021 116.82 17.9952L116.893 17.8136L120.058 9.69331H121.35ZM169.158 9.69331L172.371 18.0086C172.79 19.0727 173.137 19.3722 174.11 19.4008L174.278 19.4031V19.7829H169.789V19.4031C170.404 19.4031 170.969 19.3429 170.969 18.8747C170.969 18.7375 170.943 18.5913 170.897 18.4513L170.844 18.314L170.213 16.6783H166.134L165.535 18.2236C165.457 18.4024 165.392 18.6014 165.392 18.7983C165.392 19.2372 165.695 19.3837 166.414 19.4013L166.574 19.4031V19.7829H162.73V19.4031C163.765 19.4031 164.17 19.1021 164.627 17.9952L164.699 17.8136L167.866 9.69331H169.158ZM133.889 9.69351L133.969 12.0426H133.511C133.359 10.968 133.02 10.436 131.537 10.3936L131.337 10.3908H130.738V17.9947C130.738 19.1226 130.954 19.3807 131.933 19.4019L132.078 19.4034V19.7811H127.667V19.4034C128.718 19.4034 128.982 19.1965 129.004 18.15L129.005 17.9947V10.3908H128.391C126.806 10.3908 126.437 10.8928 126.255 11.9074L126.232 12.0426H125.776L125.871 9.69351H133.889ZM107.425 9.69432L112.355 17.8287H112.387V11.4828C112.387 10.3549 112.173 10.0949 111.192 10.0736L111.047 10.0721V9.69432H114.718V10.0721C113.634 10.0721 113.399 10.2817 113.381 11.334L113.38 11.4828V19.7799H111.882L106.7 11.2255H106.668V17.9955C106.668 19.1257 106.87 19.3826 107.867 19.4028L108.008 19.4042V19.7799H104.337V19.4042C105.39 19.4042 105.652 19.1973 105.674 18.1508L105.675 17.9955V11.4828C105.675 10.3549 105.461 10.0949 104.482 10.0736L104.337 10.0721V9.69432H107.425ZM140.379 9.69432V10.0721C139.326 10.0721 139.062 10.2808 139.04 11.3275L139.038 11.4828V17.9955C139.038 19.1234 139.255 19.3815 140.234 19.4027L140.379 19.4042V19.7799H135.968V19.4042C137.037 19.4042 137.285 19.1964 137.305 18.1443L137.306 17.9955V11.4828C137.306 10.3526 137.104 10.0938 136.109 10.0735L135.968 10.0721V9.69432H140.379ZM155.391 9.69432L160.321 17.8287H160.353V11.4828C160.353 10.3549 160.138 10.0949 159.158 10.0736L159.012 10.0721V9.69432H162.684V10.0721C161.6 10.0721 161.365 10.2817 161.347 11.334L161.345 11.4828V19.7799H159.848L154.666 11.2255H154.634V17.9955C154.634 19.1257 154.836 19.3826 155.833 19.4028L155.974 19.4042V19.7799H152.303V19.4042C153.356 19.4042 153.618 19.1973 153.639 18.1508L153.641 17.9955V11.4828C153.641 10.3549 153.427 10.0949 152.448 10.0736L152.303 10.0721V9.69432H155.391ZM179.632 9.69452V10.0723C178.579 10.0723 178.317 10.281 178.296 11.3277L178.294 11.483V17.9957C178.294 18.8099 178.42 19.0595 179.204 19.0847L179.349 19.0869H180.515C181.712 19.0869 182.17 18.6208 182.442 17.5611L182.484 17.3888H182.94L182.846 19.7801H175.222V19.4044C176.275 19.4044 176.537 19.1975 176.558 18.151L176.56 17.9957V11.483C176.56 10.3551 176.346 10.0951 175.367 10.0738L175.222 10.0723V9.69452H179.632ZM146.38 10.2712C144.268 10.2712 143.938 12.3772 143.938 14.7403C143.938 17.1156 144.268 19.2054 146.38 19.2054C148.474 19.2054 148.821 17.1156 148.821 14.7403C148.821 12.3772 148.474 10.2712 146.38 10.2712ZM120.39 11.4074L118.593 15.979H122.138L120.39 11.4074ZM168.198 11.4074L166.401 15.979H169.946L168.198 11.4074Z" fill="white"/>
</svg>
