<svg width="200" height="31" viewBox="0 0 200 31" fill="none" xmlns="http://www.w3.org/2000/svg">
<path d="M85.9194 28.5267L77.1618 4.14391C77.0487 3.80452 76.8823 3.35866 76.8823 2.97269C76.8823 1.91459 77.7741 0.909733 79.0584 0.909733C80.1764 0.909733 80.9018 1.64175 81.2345 2.69319L88.4881 23.702L95.7949 2.6333C96.1277 1.63509 96.7998 0.909733 97.9111 0.909733H98.1374C99.3086 0.909733 100.041 1.64175 100.373 2.6333L107.62 23.702L114.994 2.58006C115.273 1.68833 115.885 0.909733 117.057 0.909733C118.228 0.909733 119.173 1.8547 119.173 2.91945C119.173 3.30542 119.007 3.75794 118.893 4.09733L110.076 28.5333C109.623 29.811 108.732 30.4765 107.733 30.4765H107.56C106.449 30.4765 105.611 29.811 105.211 28.5333L98.0243 7.81064L90.7707 28.5333C90.3847 29.811 89.5395 30.4765 88.4282 30.4765H88.3151C87.257 30.4765 86.3653 29.811 85.9194 28.5333" fill="white"/>
<path d="M149.751 3.03258C149.751 1.8547 150.696 0.849842 151.867 0.849842C153.098 0.849842 154.05 1.79481 154.05 3.03258V7.98367C156.173 3.17898 160.878 0.909734 163.999 0.909734C165.283 0.909734 166.128 1.86135 166.128 3.08582C166.128 4.31028 165.343 5.09553 164.225 5.26855C158.635 5.94068 154.05 10.1265 154.05 18.4648V28.2605C154.05 29.4317 153.158 30.4366 151.927 30.4366C150.696 30.4366 149.751 29.485 149.751 28.2605V3.03258Z" fill="white"/>
<path d="M179.937 30.7028C172.157 30.7028 165.809 24.6736 165.809 15.8229V15.7098C165.809 7.47791 171.558 0.836533 179.391 0.836533C187.762 0.836533 192.527 7.7441 192.527 15.3304C192.527 16.4884 191.589 17.3202 190.557 17.3202H170.081C170.673 23.5157 174.999 26.9961 180.043 26.9961C183.55 26.9961 186.119 25.6186 188.202 23.6754C188.528 23.4026 188.914 23.183 189.406 23.183C190.438 23.183 191.269 24.0148 191.269 25.013C191.269 25.5055 191.056 26.0046 190.604 26.3905C187.922 28.9859 184.748 30.7028 179.93 30.7028M188.308 14.1592C187.869 8.96191 184.908 4.43006 179.271 4.43006C174.34 4.43006 170.613 8.57593 170.074 14.1592H188.308Z" fill="white"/>
<path d="M119.246 21.7522V21.6391C119.246 15.57 124.257 12.3358 131.557 12.3358C135.23 12.3358 137.846 12.8416 140.421 13.5603V12.5554C140.421 7.37144 137.234 4.69625 131.837 4.69625C128.935 4.69625 127.252 5.06892 125.129 6.01388C124.849 6.12701 124.57 6.18025 124.35 6.18025C123.345 6.18025 122.447 5.34176 122.447 4.34355C122.447 3.45183 122.839 2.90614 123.625 2.55344C126.46 1.32233 128.596 0.916389 132.276 0.916389C136.342 0.916389 139.463 1.96783 141.579 4.09068C143.529 6.0405 144.534 8.82881 144.534 12.5022V28.4003C144.534 29.6247 143.642 30.5164 142.464 30.5164C141.286 30.5164 140.414 29.6247 140.414 28.5067V25.7583C138.405 28.3803 135.064 30.7227 130 30.7227C124.65 30.7227 119.239 27.6549 119.239 21.7522M140.468 19.5229V16.7412C138.352 16.129 135.503 15.5101 131.996 15.5101C126.599 15.5101 123.585 17.8592 123.585 21.4727V21.5859C123.585 25.206 126.925 27.3222 130.825 27.3222C136.116 27.3222 140.461 24.088 140.461 19.5229" fill="white"/>
<path d="M7.85974 2.71315C6.91477 0.650201 4.58563 -0.294765 2.40955 0.683474C0.233467 1.6484 -0.57175 4.06406 0.413144 6.14032L9.55668 26.0112C10.9941 29.1256 12.5114 30.7627 15.3529 30.7627C18.3875 30.7627 19.7184 28.9792 21.1492 26.0112C21.1492 26.0112 29.1281 8.64248 29.2013 8.46946C29.2878 8.28313 29.5407 7.72413 30.3526 7.72413C31.038 7.73079 31.617 8.27647 31.617 9.00849V25.9979C31.617 28.6132 33.0677 30.7627 35.8627 30.7627C38.6576 30.7627 40.1616 28.6132 40.1616 25.9979V12.1029C40.1616 9.42108 42.0848 7.68421 44.7001 7.68421C47.3154 7.68421 49.0589 9.48097 49.0589 12.1029V25.9979C49.0589 28.6132 50.5163 30.7627 53.3046 30.7627C56.0929 30.7627 57.6102 28.6132 57.6102 25.9979V12.1029C57.6102 9.42108 59.5267 7.68421 62.142 7.68421C64.7573 7.68421 66.5009 9.48097 66.5009 12.1029V25.9979C66.5009 28.6132 67.9516 30.7627 70.7465 30.7627C73.5415 30.7627 75.0521 28.6132 75.0521 25.9979V10.1797C75.0521 4.36352 70.3805 0.290848 64.7573 0.290848C59.1341 0.290848 55.6204 4.18384 55.6204 4.18384C53.7505 1.76153 51.1751 0.290848 46.8096 0.290848C42.2046 0.290848 38.1785 4.17719 38.1785 4.17719C36.3019 1.76153 33.1209 0.290848 30.4857 0.290848C26.4064 0.290848 23.1655 2.08096 21.1957 6.60615L15.3529 20.368L7.85974 2.71315Z" fill="white"/>
<path d="M192.874 4.43672V4.4101C192.874 2.46693 194.451 0.829876 196.434 0.829876C198.417 0.829876 200.001 2.44697 200.001 4.39013V4.4101C200.001 6.35992 198.43 7.99697 196.434 7.99697C194.437 7.99697 192.874 6.38654 192.874 4.43672ZM199.315 4.4101C199.315 2.80632 198.084 1.48869 196.434 1.48869C194.783 1.48869 193.546 2.81963 193.546 4.4101V4.43006C193.546 6.02719 194.783 7.33151 196.434 7.33151C198.084 7.33151 199.315 6.00057 199.315 4.40344" fill="white"/>
<path d="M195.076 3.00596C195.076 2.79301 195.243 2.61999 195.455 2.61999H196.647C197.093 2.61999 197.439 2.74643 197.652 2.97934C197.851 3.16567 197.958 3.44517 197.958 3.76459V3.7779C197.958 4.32359 197.678 4.65632 197.266 4.82934L197.791 5.46819C197.864 5.56136 197.911 5.64122 197.911 5.75435C197.911 5.96064 197.738 6.10704 197.552 6.10704C197.385 6.10704 197.272 6.02053 197.179 5.91406L196.44 4.97575H195.835V5.72773C195.835 5.94068 195.668 6.10704 195.455 6.10704C195.243 6.10704 195.076 5.94068 195.076 5.72773V3.00596ZM196.607 4.29697C196.979 4.29697 197.186 4.11064 197.186 3.81118V3.79787C197.186 3.47844 196.966 3.30542 196.6 3.30542H195.841V4.29697H196.607Z" fill="white"/>
</svg>
